<svg width="512" height="512" viewBox="0 0 512 512" fill="none" xmlns="http://www.w3.org/2000/svg">
<path d="M462 502C484.091 502 502 484.091 502 462V90H424V502H462Z" fill="#F9F9F9"/>
<path d="M10 10H424V170H10V10Z" fill="#FFEE80"/>
<path d="M464 502H50C27.909 502 10 484.091 10 462V170H424V462C424 484.091 441.909 502 464 502Z" fill="#F9F9F9"/>
<path d="M509.07 82.93C507.21 81.07 504.63 80 502 80H434V10C434 4.478 429.523 0 424 0H10C4.477 0 0 4.478 0 10V462C0 489.57 22.43 512 50 512H464C473.638 512 483.751 508.02 491.452 502.407C504.263 493.07 512 477.849 512 462V224.859C512 219.339 507.51 214.859 502 214.859C496.49 214.859 492 219.339 492 224.859V462C491.97 478.186 479.03 491.432 462.965 491.974C446.901 491.425 434 478.195 434 462V100H492V134.859C492 140.37 496.49 144.859 502 144.859C507.51 144.859 512 140.37 512 134.859V90C512 87.37 510.93 84.79 509.07 82.93ZM20 20H414V160H20V20ZM50 492C33.458 492 20 478.542 20 462V180H414V462C414 473.246 417.733 483.638 424.023 492H50Z" fill="black"/>
<path d="M502 189.859C507.523 189.859 512 185.382 512 179.859C512 174.336 507.523 169.859 502 169.859C496.477 169.859 492 174.336 492 179.859C492 185.382 496.477 189.859 502 189.859Z" fill="black"/>
<path d="M170 226.002C175.523 226.002 180 221.524 180 216.002C180 210.48 175.523 206.002 170 206.002H139.923C134.4 206.002 129.923 210.48 129.923 216.002V296.002C129.923 301.524 134.4 306.002 139.923 306.002H170C175.523 306.002 180 301.524 180 296.002C180 290.48 175.523 286.002 170 286.002H149.923V266.002H167.043C172.566 266.002 177.043 261.524 177.043 256.002C177.043 250.48 172.566 246.002 167.043 246.002H149.923V226.002H170Z" fill="black"/>
<path d="M302.484 206.227C297.069 205.13 291.792 208.618 290.689 214.029L280.899 262.073L265.002 212.926C263.302 207.671 257.666 204.787 252.41 206.488C248.934 207.613 246.508 210.463 245.747 213.782L230.322 262.218L220.277 214.083C219.149 208.677 213.855 205.212 208.445 206.337C203.039 207.465 199.57 212.763 200.699 218.169C200.699 218.169 217.361 297.827 217.537 298.299C219.259 302.919 223.724 306.002 228.673 306.002C228.713 306.002 228.753 306.002 228.793 306.001C233.788 305.951 238.248 302.767 239.889 298.077C239.92 297.987 255.587 248.797 255.587 248.797C255.587 248.797 271.51 298.012 271.56 298.15C273.282 302.77 277.747 305.853 282.696 305.853C282.736 305.853 282.776 305.853 282.816 305.852C287.811 305.802 292.271 302.618 293.912 297.928C294.061 297.501 310.289 218.022 310.289 218.022C311.389 212.61 307.896 207.329 302.484 206.227V206.227Z" fill="black"/>
<path d="M100 206.002C94.477 206.002 90 210.48 90 216.002V262.025L58.515 210.907C56.17 207.099 51.582 205.313 47.275 206.53C42.971 207.749 40 211.678 40 216.151V296.002C40 301.524 44.477 306.002 50 306.002C55.523 306.002 60 301.524 60 296.002V251.455L89.642 299.579C92.353 303.972 97.316 306.031 101.995 304.703C106.858 303.323 110 298.849 110 293.306V216.002C110 210.48 105.523 206.002 100 206.002V206.002Z" fill="black"/>
<path d="M370.483 247.295C361.11 243.702 352.377 239.792 349.612 238.535C347.45 236.692 347.651 233.967 347.774 233.13C347.981 231.723 348.975 228.288 353.722 226.802C364.203 223.523 374.023 231.559 374.318 231.803C378.478 235.388 384.758 234.947 388.375 230.804C392.008 226.644 391.581 220.326 387.421 216.694C386.684 216.051 369.142 201.018 347.747 207.716C337.11 211.045 329.539 219.669 327.987 230.221C326.513 240.242 330.694 249.918 338.898 255.475C339.343 255.777 351.367 261.387 363.327 265.971C366.696 267.262 374.408 270.927 373.273 277.062C372.46 281.457 367.355 286.002 360.22 286.002C352.743 286.002 345.53 282.85 340.925 277.57C337.295 273.409 330.978 272.977 326.816 276.607C322.654 280.237 322.223 286.554 325.853 290.716C334.201 300.287 347.049 306.001 360.221 306.001C376.467 306.001 390.227 295.36 392.94 280.699C395.009 269.506 390.199 254.852 370.483 247.295Z" fill="black"/>
<path d="M384 340H304C298.477 340 294 344.478 294 350C294 355.522 298.477 360 304 360H384C389.523 360 394 355.522 394 350C394 344.478 389.523 340 384 340Z" fill="black"/>
<path d="M384 380H304C298.477 380 294 384.478 294 390C294 395.522 298.477 400 304 400H384C389.523 400 394 395.522 394 390C394 384.478 389.523 380 384 380Z" fill="black"/>
<path d="M354 420H304C298.477 420 294 424.478 294 430C294 435.522 298.477 440 304 440H354C359.523 440 364 435.522 364 430C364 424.478 359.523 420 354 420Z" fill="black"/>
<path d="M263.999 339.999H49.999C44.476 339.999 39.999 344.477 39.999 349.999C39.999 355.521 44.476 359.999 49.999 359.999H263.999C269.522 359.999 273.999 355.521 273.999 349.999C273.999 344.477 269.521 339.999 263.999 339.999Z" fill="black"/>
<path d="M263.999 379.999H173.999C168.476 379.999 163.999 384.477 163.999 389.999C163.999 395.521 168.476 399.999 173.999 399.999H263.999C269.522 399.999 273.999 395.521 273.999 389.999C273.999 384.477 269.521 379.999 263.999 379.999Z" fill="black"/>
<path d="M49.999 399.999H128.999C134.522 399.999 138.999 395.521 138.999 389.999C138.999 384.477 134.522 379.999 128.999 379.999H49.999C44.476 379.999 39.999 384.477 39.999 389.999C39.999 395.521 44.476 399.999 49.999 399.999V399.999Z" fill="black"/>
<path d="M243.999 419.999H49.999C44.476 419.999 39.999 424.477 39.999 429.999C39.999 435.521 44.476 439.999 49.999 439.999H243.999C249.522 439.999 253.999 435.521 253.999 429.999C253.999 424.477 249.521 419.999 243.999 419.999Z" fill="black"/>
<path d="M112.675 139.409C117.868 141.287 123.602 138.601 125.481 133.408L130.201 120.362H161.997L166.664 133.381C168.128 137.465 171.975 140.009 176.078 140.009C177.198 140.009 178.337 139.82 179.452 139.419C184.651 137.556 187.355 131.83 185.491 126.631L157.214 47.754C157.182 47.665 157.149 47.576 157.114 47.488C155.337 42.941 151.057 40.006 146.208 40.006C146.204 40.006 146.199 40.006 146.195 40.006C141.341 40.011 137.061 42.957 135.292 47.512C135.264 47.585 135.236 47.658 135.21 47.731L106.674 126.604C104.795 131.797 107.481 137.53 112.675 139.409V139.409ZM146.171 76.219L154.826 100.363H137.436L146.171 76.219Z" fill="black"/>
<path d="M206.114 130.006C206.114 135.528 210.591 140.006 216.114 140.006C221.637 140.006 226.114 135.528 226.114 130.006V109.665L259.633 137.679C261.504 139.243 263.779 140.006 266.04 140.006C268.9 140.006 271.741 138.785 273.718 136.419C277.26 132.181 276.696 125.875 272.458 122.333L231.882 88.421L269.168 58.851C273.495 55.419 274.221 49.129 270.789 44.802C267.357 40.475 261.067 39.749 256.74 43.181L226.114 67.47V50.006C226.114 44.484 221.637 40.006 216.114 40.006C210.591 40.006 206.114 44.484 206.114 50.006V130.006Z" fill="black"/>
<path d="M62 140.006C67.523 140.006 72 135.528 72 130.006V100.006H89.12C94.643 100.006 99.12 95.528 99.12 90.006C99.12 84.484 94.643 80.006 89.12 80.006H72V60.006H92.077C97.6 60.006 102.077 55.528 102.077 50.006C102.077 44.484 97.6 40.006 92.077 40.006H62C56.477 40.006 52 44.484 52 50.006V130.006C52 135.528 56.477 140.006 62 140.006Z" fill="black"/>
<path d="M372.997 95C378.517 95 382.997 90.52 382.997 85.01V50.01C382.997 44.489 378.517 40 372.997 40C367.487 40 362.997 44.489 362.997 50.01V85.01C362.997 90.52 367.487 95 372.997 95Z" fill="black"/>
<path d="M372.997 140C378.517 140 382.997 135.52 382.997 130.01C382.997 124.489 378.517 120 372.997 120C367.487 120 362.997 124.489 362.997 130.01C362.997 135.52 367.487 140 372.997 140Z" fill="black"/>
<path d="M306 140.006H336.077C341.6 140.006 346.077 135.528 346.077 130.006C346.077 124.484 341.6 120.006 336.077 120.006H316V100.006H333.12C338.643 100.006 343.12 95.528 343.12 90.006C343.12 84.484 338.643 80.006 333.12 80.006H316V60.006H336.077C341.6 60.006 346.077 55.528 346.077 50.006C346.077 44.484 341.6 40.006 336.077 40.006H306C300.477 40.006 296 44.484 296 50.006V130.006C296 135.528 300.477 140.006 306 140.006Z" fill="black"/>
</svg>
