<svg width="1632" height="700" viewBox="0 0 1632 700" fill="none" xmlns="http://www.w3.org/2000/svg">
<g clip-path="url(#clip0)">
<path d="M1504.4 608.187C1503.53 638.123 1498.12 667.798 1488.33 696.335C1488.1 696.997 1487.87 697.65 1487.63 698.312H1427.66C1427.72 697.719 1427.78 697.057 1427.85 696.335C1431.85 653.724 1454.9 394.38 1427.34 350.029C1429.75 353.627 1509.05 472.792 1504.4 608.187Z" fill="#86DFAA"/>
<path d="M1499.9 696.335C1499.4 696.997 1498.87 697.659 1498.34 698.312H1453.35C1453.69 697.748 1454.08 697.086 1454.54 696.335C1461.97 683.9 1483.97 646.726 1504.4 608.187C1526.34 566.772 1546.48 523.785 1544.78 508.227C1545.31 511.736 1560.49 618.704 1499.9 696.335Z" fill="#B9FBD3"/>
<path d="M1383.31 656.92H1075.89C1074.38 656.918 1072.93 656.362 1071.86 655.373C1070.8 654.384 1070.2 653.043 1070.19 651.644V580.964C1070.2 579.565 1070.8 578.224 1071.86 577.235C1072.93 576.246 1074.38 575.689 1075.89 575.688H1383.31C1384.82 575.689 1386.27 576.246 1387.33 577.235C1388.4 578.224 1389 579.565 1389 580.964V651.644C1389 653.043 1388.4 654.384 1387.33 655.373C1386.27 656.362 1384.82 656.918 1383.31 656.92ZM1075.89 577.798C1074.98 577.799 1074.11 578.133 1073.47 578.726C1072.83 579.32 1072.47 580.125 1072.47 580.964V651.644C1072.47 652.483 1072.83 653.288 1073.47 653.881C1074.11 654.475 1074.98 654.809 1075.89 654.81H1383.31C1384.21 654.809 1385.08 654.475 1385.72 653.881C1386.36 653.288 1386.72 652.483 1386.72 651.644V580.964C1386.72 580.125 1386.36 579.32 1385.72 578.726C1385.08 578.133 1384.21 577.799 1383.31 577.798H1075.89Z" fill="#B6B6B6"/>
<path d="M1123.65 635.086C1136.46 635.086 1146.84 625.462 1146.84 613.592C1146.84 601.721 1136.46 592.098 1123.65 592.098C1110.85 592.098 1100.46 601.721 1100.46 613.592C1100.46 625.462 1110.85 635.086 1123.65 635.086Z" fill="#D8D4D4"/>
<path d="M1177.21 599.263C1176.19 599.264 1175.21 599.642 1174.48 600.314C1173.76 600.986 1173.35 601.896 1173.35 602.845C1173.35 603.794 1173.76 604.704 1174.48 605.376C1175.21 606.047 1176.19 606.426 1177.21 606.427H1359.42C1360.45 606.427 1361.43 606.05 1362.16 605.378C1362.88 604.706 1363.29 603.795 1363.29 602.845C1363.29 601.895 1362.88 600.984 1362.16 600.312C1361.43 599.64 1360.45 599.263 1359.42 599.263H1177.21Z" fill="#D8D4D4"/>
<path d="M1177.21 620.756C1176.19 620.756 1175.2 621.134 1174.48 621.805C1173.75 622.477 1173.35 623.388 1173.35 624.338C1173.35 625.289 1173.75 626.2 1174.48 626.872C1175.2 627.543 1176.19 627.921 1177.21 627.921H1255.62C1256.64 627.921 1257.63 627.543 1258.35 626.872C1259.08 626.2 1259.48 625.289 1259.48 624.338C1259.48 623.388 1259.08 622.477 1258.35 621.805C1257.63 621.134 1256.64 620.756 1255.62 620.756H1177.21Z" fill="#D8D4D4"/>
<path d="M1177.21 620.756C1176.19 620.756 1175.2 621.134 1174.48 621.805C1173.75 622.477 1173.35 623.388 1173.35 624.338C1173.35 625.289 1173.75 626.2 1174.48 626.872C1175.2 627.543 1176.19 627.921 1177.21 627.921H1255.62C1256.64 627.921 1257.63 627.543 1258.35 626.872C1259.08 626.2 1259.48 625.289 1259.48 624.338C1259.48 623.388 1259.08 622.477 1258.35 621.805C1257.63 621.134 1256.64 620.756 1255.62 620.756H1177.21Z" fill="#D8D4D4"/>
<path d="M1177.21 620.756C1176.19 620.756 1175.2 621.134 1174.48 621.805C1173.75 622.477 1173.35 623.388 1173.35 624.338C1173.35 625.289 1173.75 626.2 1174.48 626.872C1175.2 627.543 1176.19 627.921 1177.21 627.921H1255.62C1256.64 627.921 1257.63 627.543 1258.35 626.872C1259.08 626.2 1259.48 625.289 1259.48 624.338C1259.48 623.388 1259.08 622.477 1258.35 621.805C1257.63 621.134 1256.64 620.756 1255.62 620.756H1177.21Z" fill="#D8D4D4"/>
<path d="M1413.97 541.218H1106.54C1105.03 541.216 1103.59 540.66 1102.52 539.671C1101.45 538.682 1100.85 537.34 1100.85 535.942V465.262C1100.85 463.863 1101.45 462.522 1102.52 461.533C1103.59 460.544 1105.03 459.987 1106.54 459.985H1413.97C1415.47 459.987 1416.92 460.544 1417.99 461.533C1419.06 462.522 1419.66 463.863 1419.66 465.262V535.942C1419.66 537.34 1419.06 538.682 1417.99 539.671C1416.92 540.66 1415.47 541.216 1413.97 541.218ZM1106.54 462.096C1105.64 462.097 1104.77 462.431 1104.13 463.024C1103.49 463.618 1103.13 464.423 1103.13 465.262V535.942C1103.13 536.781 1103.49 537.586 1104.13 538.179C1104.77 538.773 1105.64 539.107 1106.54 539.107H1413.97C1414.87 539.107 1415.74 538.773 1416.38 538.179C1417.02 537.586 1417.38 536.781 1417.38 535.942V465.262C1417.38 464.423 1417.02 463.618 1416.38 463.024C1415.74 462.431 1414.87 462.097 1413.97 462.096H1106.54Z" fill="#B6B6B6"/>
<path d="M1154.31 519.383C1167.12 519.383 1177.5 509.76 1177.5 497.89C1177.5 486.019 1167.12 476.396 1154.31 476.396C1141.5 476.396 1131.12 486.019 1131.12 497.89C1131.12 509.76 1141.5 519.383 1154.31 519.383Z" fill="#D8D4D4"/>
<path d="M1207.87 483.561C1206.85 483.562 1205.86 483.94 1205.14 484.612C1204.42 485.284 1204.01 486.194 1204.01 487.143C1204.01 488.092 1204.42 489.002 1205.14 489.674C1205.86 490.346 1206.85 490.724 1207.87 490.725H1390.08C1391.1 490.725 1392.09 490.348 1392.81 489.676C1393.54 489.004 1393.94 488.093 1393.94 487.143C1393.94 486.193 1393.54 485.282 1392.81 484.61C1392.09 483.938 1391.1 483.561 1390.08 483.561H1207.87Z" fill="#D8D4D4"/>
<path d="M1207.87 505.054C1206.84 505.054 1205.86 505.432 1205.14 506.104C1204.41 506.775 1204 507.687 1204 508.637C1204 509.587 1204.41 510.498 1205.14 511.17C1205.86 511.841 1206.84 512.219 1207.87 512.219H1286.27C1287.3 512.219 1288.28 511.841 1289.01 511.17C1289.73 510.498 1290.14 509.587 1290.14 508.637C1290.14 507.687 1289.73 506.775 1289.01 506.104C1288.28 505.432 1287.3 505.054 1286.27 505.054H1207.87Z" fill="#D8D4D4"/>
<path d="M1392.21 432.355H1084.79C1083.28 432.353 1081.83 431.797 1080.76 430.808C1079.7 429.818 1079.1 428.477 1079.09 427.078V183.424C1079.1 182.025 1079.7 180.684 1080.76 179.695C1081.83 178.705 1083.28 178.149 1084.79 178.147H1392.21C1393.72 178.149 1395.17 178.705 1396.23 179.695C1397.3 180.684 1397.9 182.025 1397.9 183.424V427.078C1397.9 428.477 1397.3 429.818 1396.23 430.808C1395.17 431.797 1393.72 432.353 1392.21 432.355ZM1084.79 180.258C1083.88 180.259 1083.01 180.593 1082.37 181.186C1081.73 181.78 1081.37 182.585 1081.37 183.424V427.078C1081.37 427.918 1081.73 428.722 1082.37 429.316C1083.01 429.909 1083.88 430.243 1084.79 430.244H1392.21C1393.12 430.243 1393.98 429.909 1394.62 429.316C1395.26 428.722 1395.62 427.918 1395.63 427.078V183.424C1395.62 182.585 1395.26 181.78 1394.62 181.186C1393.98 180.593 1393.12 180.259 1392.21 180.258H1084.79Z" fill="#B6B6B6"/>
<path d="M1132.55 410.52C1145.36 410.52 1155.74 400.897 1155.74 389.027C1155.74 377.156 1145.36 367.533 1132.55 367.533C1119.75 367.533 1109.36 377.156 1109.36 389.027C1109.36 400.897 1119.75 410.52 1132.55 410.52Z" fill="#D8D4D4"/>
<path d="M1186.11 374.697C1185.09 374.697 1184.1 375.075 1183.38 375.747C1182.66 376.419 1182.25 377.33 1182.25 378.28C1182.25 379.23 1182.66 380.141 1183.38 380.813C1184.1 381.485 1185.09 381.862 1186.11 381.862H1368.32C1369.35 381.862 1370.33 381.485 1371.05 380.813C1371.78 380.141 1372.19 379.23 1372.19 378.28C1372.19 377.33 1371.78 376.419 1371.05 375.747C1370.33 375.075 1369.35 374.697 1368.32 374.697H1186.11Z" fill="#D8D4D4"/>
<path d="M1186.11 396.191C1185.09 396.191 1184.1 396.569 1183.38 397.24C1182.66 397.912 1182.25 398.823 1182.25 399.774C1182.25 400.724 1182.66 401.635 1183.38 402.307C1184.1 402.978 1185.09 403.356 1186.11 403.356H1264.52C1265.54 403.356 1266.53 402.978 1267.25 402.307C1267.98 401.635 1268.38 400.724 1268.38 399.774C1268.38 398.823 1267.98 397.912 1267.25 397.24C1266.53 396.569 1265.54 396.191 1264.52 396.191H1186.11Z" fill="#D8D4D4"/>
<path d="M911.695 442.781L915.084 467.789C915.36 469.825 916.146 471.773 917.38 473.476C918.613 475.18 920.26 476.593 922.188 477.601C924.117 478.609 926.273 479.185 928.484 479.283C930.695 479.38 932.901 478.996 934.923 478.162C936.717 477.423 938.326 476.346 939.647 475C940.969 473.655 941.975 472.069 942.601 470.345C943.228 468.62 943.461 466.794 943.286 464.981C943.112 463.169 942.533 461.41 941.587 459.815L927.335 435.798L922.676 332.537L892.539 339.051L911.695 442.781Z" fill="#FFB8B8"/>
<path d="M1024.57 674.596L1001.11 676.573L987.246 497.667L986.713 543.629L935.523 670.148L915.261 655.322L948.854 529.297L932.857 459.119H1037.37L1024.57 674.596Z" fill="#2F2E41"/>
<path d="M1053.51 699.109L1003.42 698.134C1001.38 698.254 999.333 698.004 997.43 697.403C995.527 696.802 993.82 695.867 992.435 694.666C991.051 693.465 990.025 692.03 989.434 690.469C988.844 688.907 988.704 687.259 989.026 685.649L991.079 675.373C991.47 673.412 992.682 671.615 994.518 670.274C996.354 668.932 998.705 668.125 1001.19 667.983C1009.74 675.033 1018.58 673.992 1027.66 666.475L1048.3 683.165L1051.39 682.835C1053.82 682.574 1056.3 683.019 1058.36 684.09C1060.42 685.16 1061.93 686.785 1062.62 688.669C1063.04 689.839 1063.14 691.071 1062.89 692.274C1062.64 693.476 1062.06 694.62 1061.19 695.62C1060.31 696.621 1059.17 697.453 1057.84 698.057C1056.51 698.66 1055.03 699.02 1053.51 699.109Z" fill="#2F2E41"/>
<path d="M948.492 697.437L904.753 682.142C902.97 681.518 901.363 680.529 900.051 679.249C898.739 677.969 897.757 676.43 897.178 674.748C896.598 673.066 896.437 671.284 896.705 669.536C896.973 667.788 897.665 666.119 898.728 664.653L905.51 655.303C906.804 653.52 908.71 652.194 910.92 651.542C913.129 650.89 915.512 650.951 917.68 651.713C921.436 661.74 929.415 663.925 940.774 659.834L951.93 679.887L954.696 680.681C956.885 681.309 958.757 682.645 959.972 684.445C961.187 686.245 961.665 688.389 961.318 690.488C961.102 691.792 960.575 693.035 959.775 694.127C958.975 695.218 957.921 696.13 956.692 696.796C955.463 697.462 954.089 697.865 952.67 697.976C951.252 698.087 949.824 697.903 948.492 697.437Z" fill="#2F2E41"/>
<path d="M987.246 235.734C1002.56 235.734 1014.97 224.228 1014.97 210.034C1014.97 195.841 1002.56 184.335 987.246 184.335C971.932 184.335 959.518 195.841 959.518 210.034C959.518 224.228 971.932 235.734 987.246 235.734Z" fill="#FFB8B8"/>
<path d="M990.445 257.479L942.455 256.491C955.642 242.969 963.652 228.863 964.851 213.988H990.445V257.479Z" fill="#FFB8B8"/>
<path d="M1040.57 472.956C995.268 462.184 952.763 454.923 926.459 468.014C931.065 423.128 925.737 365.831 909.93 305.946C904.795 286.495 908.278 268.968 926.992 258.962L952.053 245.618L990.445 246.606L1010.48 256.878C1020.27 261.414 1028.2 268.789 1033.06 277.884C1037.92 286.978 1039.45 297.294 1037.41 307.265C1026.65 359.758 1032.46 416.413 1040.57 472.956Z" fill="#3F3D56"/>
<path d="M1050.17 441.327L1053.92 466.289C1054.23 468.321 1054.02 470.392 1053.31 472.335C1052.59 474.278 1051.4 476.039 1049.82 477.478C1048.24 478.917 1046.33 479.994 1044.22 480.622C1042.11 481.25 1039.87 481.412 1037.69 481.095C1035.75 480.814 1033.89 480.163 1032.24 479.183C1030.58 478.203 1029.17 476.915 1028.08 475.402C1026.99 473.888 1026.25 472.181 1025.91 470.389C1025.57 468.597 1025.63 466.759 1026.09 464.991L1033.1 438.362L1008.57 337.542L1039.5 336.553L1050.17 441.327Z" fill="#FFB8B8"/>
<path d="M937.123 347.426L887 344.461C890.916 298.76 902.06 273.777 918.993 265.386L937.123 285.155V347.426Z" fill="#3F3D56"/>
<path d="M1006.44 201.139C996.673 198.242 991.603 216.807 977.115 228.32C973.821 230.937 965.604 220.733 962.718 223.872L958.052 210.71C952.516 195.093 962.492 178.069 979.836 174.637C980.297 174.546 980.761 174.464 981.23 174.392C988.795 173.224 996.558 174.688 1003.03 178.503C1009.5 182.318 1014.22 188.215 1016.29 195.061C1016.43 195.559 1016.46 196.08 1016.38 196.59C1016.29 197.1 1016.1 197.589 1015.81 198.028C1015.52 198.468 1015.13 198.847 1014.68 199.145C1014.22 199.442 1013.71 199.651 1013.16 199.759L1006.44 201.139Z" fill="#2F2E41"/>
<path d="M1050.17 338.53L1003.24 348.415L1001.11 277.248L1027.77 278.236L1050.17 338.53Z" fill="#3F3D56"/>
<path d="M1465.25 347.371H1157.83C1156.32 347.37 1154.87 346.813 1153.8 345.824C1152.74 344.835 1152.14 343.494 1152.13 342.095V217.052C1152.14 215.653 1152.74 214.312 1153.8 213.322C1154.87 212.333 1156.32 211.777 1157.83 211.775H1465.25C1466.76 211.777 1468.21 212.333 1469.27 213.322C1470.34 214.312 1470.94 215.653 1470.94 217.052V342.095C1470.94 343.494 1470.34 344.835 1469.27 345.824C1468.21 346.813 1466.76 347.37 1465.25 347.371Z" fill="#F86C6C"/>
<path d="M1220.43 255.36C1219.92 255.359 1219.42 255.451 1218.95 255.631C1218.48 255.81 1218.06 256.074 1217.7 256.407C1217.34 256.74 1217.05 257.135 1216.86 257.57C1216.66 258.005 1216.56 258.471 1216.56 258.942C1216.56 259.413 1216.66 259.879 1216.86 260.314C1217.05 260.749 1217.34 261.144 1217.7 261.477C1218.06 261.81 1218.48 262.074 1218.95 262.253C1219.42 262.433 1219.92 262.525 1220.43 262.524H1402.64C1403.67 262.524 1404.65 262.147 1405.38 261.475C1406.1 260.803 1406.51 259.892 1406.51 258.942C1406.51 257.992 1406.1 257.081 1405.38 256.409C1404.65 255.737 1403.67 255.36 1402.64 255.36H1220.43Z" fill="white"/>
<path d="M1220.43 276.117C1219.92 276.116 1219.42 276.208 1218.95 276.388C1218.48 276.567 1218.06 276.831 1217.7 277.164C1217.34 277.497 1217.05 277.892 1216.86 278.327C1216.66 278.762 1216.56 279.228 1216.56 279.699C1216.56 280.17 1216.66 280.636 1216.86 281.071C1217.05 281.506 1217.34 281.901 1217.7 282.234C1218.06 282.567 1218.48 282.831 1218.95 283.01C1219.42 283.19 1219.92 283.282 1220.43 283.281H1402.64C1403.67 283.281 1404.65 282.904 1405.38 282.232C1406.1 281.56 1406.51 280.649 1406.51 279.699C1406.51 278.749 1406.1 277.838 1405.38 277.166C1404.65 276.494 1403.67 276.117 1402.64 276.117H1220.43Z" fill="white"/>
<path d="M1220.43 276.117C1219.92 276.116 1219.42 276.208 1218.95 276.388C1218.48 276.567 1218.06 276.831 1217.7 277.164C1217.34 277.497 1217.05 277.892 1216.86 278.327C1216.66 278.762 1216.56 279.228 1216.56 279.699C1216.56 280.17 1216.66 280.636 1216.86 281.071C1217.05 281.506 1217.34 281.901 1217.7 282.234C1218.06 282.567 1218.48 282.831 1218.95 283.01C1219.42 283.19 1219.92 283.282 1220.43 283.281H1402.64C1403.67 283.281 1404.65 282.904 1405.38 282.232C1406.1 281.56 1406.51 280.649 1406.51 279.699C1406.51 278.749 1406.1 277.838 1405.38 277.166C1404.65 276.494 1403.67 276.117 1402.64 276.117H1220.43Z" fill="white"/>
<path d="M1220.43 276.117C1219.92 276.116 1219.42 276.208 1218.95 276.388C1218.48 276.567 1218.06 276.831 1217.7 277.164C1217.34 277.497 1217.05 277.892 1216.86 278.327C1216.66 278.762 1216.56 279.228 1216.56 279.699C1216.56 280.17 1216.66 280.636 1216.86 281.071C1217.05 281.506 1217.34 281.901 1217.7 282.234C1218.06 282.567 1218.48 282.831 1218.95 283.01C1219.42 283.19 1219.92 283.282 1220.43 283.281H1402.64C1403.67 283.281 1404.65 282.904 1405.38 282.232C1406.1 281.56 1406.51 280.649 1406.51 279.699C1406.51 278.749 1406.1 277.838 1405.38 277.166C1404.65 276.494 1403.67 276.117 1402.64 276.117H1220.43Z" fill="white"/>
<path d="M1220.43 296.622C1219.41 296.622 1218.43 296.999 1217.7 297.671C1216.98 298.343 1216.57 299.254 1216.57 300.204C1216.57 301.154 1216.98 302.066 1217.7 302.737C1218.43 303.409 1219.41 303.787 1220.43 303.787H1298.84C1299.86 303.787 1300.85 303.409 1301.57 302.737C1302.3 302.066 1302.7 301.154 1302.7 300.204C1302.7 299.254 1302.3 298.343 1301.57 297.671C1300.85 296.999 1299.86 296.622 1298.84 296.622H1220.43Z" fill="white"/>
<path d="M291.631 697.957C292.075 698.739 292.539 699.52 293.011 700.29H332.907C332.605 699.625 332.255 698.844 331.848 697.957C325.257 683.285 305.749 639.421 287.64 593.947C268.179 545.08 250.326 494.357 251.83 476C251.366 480.14 237.901 606.357 291.631 697.957Z" fill="#86DFAA"/>
<path d="M300.28 612.778C301.27 641.743 307.549 670.457 318.934 698.075C319.194 698.716 319.467 699.348 319.74 699.988L389.541 700.03C389.467 699.456 389.393 698.815 389.319 698.117C384.689 656.886 358.004 405.945 390.112 363.053C387.305 366.532 294.946 481.775 300.28 612.778Z" fill="#639B79"/>
<path d="M501.389 683.089C502.88 686.836 503.683 690.846 503.773 695.001C503.776 695.098 503.776 695.193 503.777 695.29L494.884 699.192C494.861 699.115 494.835 699.029 494.805 698.936C493.094 693.423 482.487 659.951 476 656.276C476.552 656.563 494.756 666.095 501.389 683.089Z" fill="#639B79"/>
<path d="M495.936 685.543C494.839 689.939 494.547 694.525 495.069 699.165C495.081 699.273 495.095 699.38 495.108 699.488L505.597 702.497C505.611 702.408 505.627 702.308 505.646 702.2C506.724 695.804 513.512 656.942 520.183 651.877C519.611 652.279 500.772 665.625 495.936 685.543Z" fill="#87AE97"/>
<path d="M822.045 682.285C821.547 688.165 819.975 693.939 817.377 699.438C817.318 699.566 817.256 699.692 817.194 699.819L802.999 699.111C803.02 698.995 803.042 698.866 803.064 698.725C804.429 690.388 812.43 639.635 806.341 630.583C806.876 631.319 824.474 655.701 822.045 682.285Z" fill="#A7CFB7"/>
<path d="M793.342 687.15C795.486 692.65 798.63 697.745 802.681 702.286C802.774 702.391 802.869 702.494 802.965 702.599L816.383 697.899C816.33 697.793 816.273 697.675 816.211 697.546C812.54 689.934 790.485 643.503 793.763 633.093C793.458 633.951 783.48 662.331 793.342 687.15Z" fill="#7ABD95"/>
<path d="M834.071 684.044C831.751 692.059 827.973 699.631 822.847 706.537C822.729 706.698 822.608 706.855 822.487 707.015L803 702.102C803.061 701.947 803.127 701.774 803.197 701.584C807.398 690.402 832.548 622.238 826.611 608C827.149 609.169 844.801 647.852 834.071 684.044Z" fill="#729480"/>
<path d="M303.865 701C300.47 701 297.108 700.975 293.97 700.924C290.832 700.874 287.98 700.801 285.578 700.708C283.176 700.615 281.27 700.505 279.969 700.383C278.669 700.262 278 700.131 278 700C278 699.869 278.669 699.738 279.969 699.617C281.27 699.496 283.176 699.385 285.578 699.292C287.98 699.199 290.832 699.126 293.97 699.076C297.108 699.025 300.47 699 303.865 699H1521.18C1528.03 699 1534.59 699.105 1539.44 699.293C1544.28 699.48 1547 699.735 1547 700C1547 700.265 1544.28 700.52 1539.44 700.707C1534.59 700.895 1528.03 701 1521.18 701H303.865Z" fill="#B6B6B6"/>
<path d="M1547 140.226C1547 128.822 1530.74 119.578 1510.68 119.578C1510.28 119.578 1509.89 119.588 1509.5 119.595C1503.45 101.047 1474.84 87 1440.47 87C1411.22 87 1386.15 97.1688 1375.59 111.626C1367.79 109.562 1359.76 108.533 1351.69 108.566C1320.93 108.566 1296 122.74 1296 140.226C1296 156.109 1316.58 169.259 1343.4 171.535C1362.89 175.099 1393.34 177.392 1427.55 177.392C1485.65 177.392 1528.15 166.311 1529.22 157.981C1539.86 154.381 1547 147.779 1547 140.226Z" fill="#F2F2F2"/>
<path d="M574 153.324C574 146.827 564.736 141.56 553.309 141.56C553.082 141.56 552.859 141.566 552.634 141.57C549.187 131.003 532.891 123 513.305 123C496.642 123 482.36 128.793 476.345 137.03C471.902 135.854 467.323 135.268 462.727 135.286C445.205 135.286 431 143.362 431 153.324C431 162.373 442.722 169.864 458.004 171.161C469.108 173.192 486.454 174.498 505.949 174.498C539.045 174.498 563.262 168.185 563.87 163.439C569.934 161.388 574 157.627 574 153.324Z" fill="#F2F2F2"/>
<path opacity="0.4" d="M1517.92 389.84C1530.03 389.84 1539.84 380.026 1539.84 367.92C1539.84 355.814 1530.03 346 1517.92 346C1505.81 346 1496 355.814 1496 367.92C1496 380.026 1505.81 389.84 1517.92 389.84Z" fill="#FF6363"/>
<path opacity="0.4" d="M1540.25 313.496C1557.51 313.496 1571.5 299.506 1571.5 282.248C1571.5 264.99 1557.51 251 1540.25 251C1522.99 251 1509 264.99 1509 282.248C1509 299.506 1522.99 313.496 1540.25 313.496Z" fill="#E8B1B1"/>
<path d="M1003 81.3239C1003 74.8271 993.736 69.5603 982.309 69.5603C982.083 69.5603 981.859 69.5659 981.634 69.57C978.187 59.0027 961.891 51 942.305 51C925.642 51 911.36 56.7934 905.345 65.0301C900.902 63.8542 896.323 63.2679 891.727 63.2864C874.205 63.2864 860 71.3621 860 81.3239C860 90.3731 871.722 97.8645 887.004 99.1614C898.108 101.192 915.454 102.498 934.949 102.498C968.045 102.498 992.262 96.185 992.87 91.4394C998.934 89.3884 1003 85.6268 1003 81.3239Z" fill="#F2F2F2"/>
<path d="M614.524 700.322L613.004 700.456C611.758 683.524 611.732 666.524 612.927 649.588C615.624 613.313 623.995 588.772 637.809 576.649L638.815 577.795C606.546 606.117 614.44 699.382 614.524 700.322Z" fill="#2F2E41"/>
<path d="M635 703.541L633 703.502C633.043 701.287 634.293 649.088 654.843 634.66L655.991 636.297C636.271 650.143 635.01 703.009 635 703.541Z" fill="#2F2E41"/>
<path d="M647.461 576.995C651.65 576.54 654.678 572.775 654.222 568.586C653.767 564.396 650.002 561.369 645.813 561.824C641.623 562.279 638.596 566.044 639.051 570.234C639.506 574.423 643.271 577.451 647.461 576.995Z" fill="#749927"/>
<path d="M665.417 634C670.94 634 675.417 629.523 675.417 624C675.417 618.477 670.94 614 665.417 614C659.894 614 655.417 618.477 655.417 624C655.417 629.523 659.894 634 665.417 634Z" fill="#AC9F2A"/>
<path d="M617.589 584.842C620.004 593.793 617.173 602.34 617.173 602.34C617.173 602.34 610.427 596.376 608.012 587.425C605.597 578.474 608.428 569.926 608.428 569.926C608.428 569.926 615.174 575.891 617.589 584.842Z" fill="#2F2E41"/>
<path d="M644.787 604.263C636.394 608.201 627.483 606.902 627.483 606.902C627.483 606.902 632.181 599.22 640.574 595.283C648.967 591.345 657.878 592.643 657.878 592.643C657.878 592.643 653.18 600.325 644.787 604.263Z" fill="#2F2E41"/>
<path d="M663.395 659.31C658.194 660.943 652.654 661.182 647.331 660.003C650.711 655.7 655.263 652.466 660.439 650.691C665.615 648.915 671.193 648.674 676.503 649.997C673.025 654.195 668.505 657.407 663.395 659.31Z" fill="#2F2E41"/>
</g>
<defs>
<clipPath id="clip0">
<rect width="1632" height="700" fill="white"/>
</clipPath>
</defs>
</svg>
