<svg width="1186" height="595" viewBox="0 0 1186 595" fill="none" xmlns="http://www.w3.org/2000/svg">
<g clip-path="url(#clip0)">
<path d="M1133.4 502.187C1132.53 532.123 1127.12 561.798 1117.33 590.335C1117.1 590.997 1116.87 591.65 1116.63 592.312H1056.66C1056.72 591.719 1056.78 591.057 1056.85 590.335C1060.85 547.724 1083.9 288.38 1056.34 244.029C1058.75 247.627 1138.05 366.792 1133.4 502.187Z" fill="#86DFAA"/>
<path d="M1128.9 590.335C1128.4 590.997 1127.87 591.659 1127.34 592.312H1082.35C1082.69 591.748 1083.08 591.086 1083.54 590.335C1090.97 577.9 1112.97 540.725 1133.4 502.187C1155.34 460.772 1175.48 417.785 1173.78 402.227C1174.31 405.736 1189.49 512.704 1128.9 590.335Z" fill="#B9FBD3"/>
<path d="M1012.31 550.92H704.887C703.378 550.918 701.931 550.362 700.864 549.373C699.796 548.384 699.196 547.043 699.194 545.644V474.964C699.196 473.565 699.796 472.224 700.864 471.235C701.931 470.246 703.378 469.689 704.887 469.688H1012.31C1013.82 469.689 1015.27 470.246 1016.33 471.235C1017.4 472.224 1018 473.565 1018 474.964V545.644C1018 547.043 1017.4 548.384 1016.33 549.373C1015.27 550.362 1013.82 550.918 1012.31 550.92V550.92ZM704.887 471.798C703.982 471.799 703.113 472.133 702.473 472.726C701.833 473.32 701.472 474.125 701.471 474.964V545.644C701.472 546.483 701.833 547.288 702.473 547.881C703.113 548.475 703.982 548.809 704.887 548.81H1012.31C1013.21 548.809 1014.08 548.475 1014.72 547.881C1015.36 547.288 1015.72 546.483 1015.72 545.644V474.964C1015.72 474.125 1015.36 473.32 1014.72 472.726C1014.08 472.133 1013.21 471.799 1012.31 471.798H704.887Z" fill="#B6B6B6"/>
<path d="M752.654 529.086C765.462 529.086 775.844 519.462 775.844 507.592C775.844 495.721 765.462 486.098 752.654 486.098C739.847 486.098 729.464 495.721 729.464 507.592C729.464 519.462 739.847 529.086 752.654 529.086Z" fill="#D8D4D4"/>
<path d="M806.213 493.263C805.189 493.264 804.207 493.642 803.484 494.314C802.76 494.986 802.354 495.896 802.354 496.845C802.354 497.794 802.76 498.704 803.484 499.376C804.207 500.047 805.189 500.426 806.213 500.427H988.422C989.447 500.427 990.43 500.05 991.155 499.378C991.879 498.706 992.287 497.795 992.287 496.845C992.287 495.895 991.879 494.984 991.155 494.312C990.43 493.64 989.447 493.263 988.422 493.263H806.213Z" fill="#D8D4D4"/>
<path d="M806.213 514.756C805.188 514.756 804.205 515.134 803.48 515.805C802.755 516.477 802.348 517.388 802.348 518.338C802.348 519.289 802.755 520.2 803.48 520.872C804.205 521.543 805.188 521.921 806.213 521.921H884.618C885.643 521.921 886.626 521.543 887.351 520.872C888.076 520.2 888.483 519.289 888.483 518.338C888.483 517.388 888.076 516.477 887.351 515.805C886.626 515.134 885.643 514.756 884.618 514.756H806.213Z" fill="#D8D4D4"/>
<path d="M806.213 514.756C805.188 514.756 804.205 515.134 803.48 515.805C802.755 516.477 802.348 517.388 802.348 518.338C802.348 519.289 802.755 520.2 803.48 520.872C804.205 521.543 805.188 521.921 806.213 521.921H884.618C885.643 521.921 886.626 521.543 887.351 520.872C888.076 520.2 888.483 519.289 888.483 518.338C888.483 517.388 888.076 516.477 887.351 515.805C886.626 515.134 885.643 514.756 884.618 514.756H806.213Z" fill="#D8D4D4"/>
<path d="M806.213 514.756C805.188 514.756 804.205 515.134 803.48 515.805C802.755 516.477 802.348 517.388 802.348 518.338C802.348 519.289 802.755 520.2 803.48 520.872C804.205 521.543 805.188 521.921 806.213 521.921H884.618C885.643 521.921 886.626 521.543 887.351 520.872C888.076 520.2 888.483 519.289 888.483 518.338C888.483 517.388 888.076 516.477 887.351 515.805C886.626 515.134 885.643 514.756 884.618 514.756H806.213Z" fill="#D8D4D4"/>
<path d="M1042.97 435.218H735.543C734.034 435.216 732.587 434.66 731.52 433.671C730.453 432.682 729.852 431.34 729.85 429.942V359.262C729.852 357.863 730.453 356.522 731.52 355.533C732.587 354.544 734.034 353.987 735.543 353.985H1042.97C1044.47 353.987 1045.92 354.544 1046.99 355.533C1048.06 356.522 1048.66 357.863 1048.66 359.262V429.942C1048.66 431.34 1048.06 432.682 1046.99 433.671C1045.92 434.66 1044.47 435.216 1042.97 435.218V435.218ZM735.543 356.096C734.638 356.097 733.77 356.431 733.129 357.024C732.489 357.618 732.129 358.423 732.128 359.262V429.942C732.129 430.781 732.489 431.586 733.129 432.179C733.77 432.773 734.638 433.107 735.543 433.107H1042.97C1043.87 433.107 1044.74 432.773 1045.38 432.179C1046.02 431.586 1046.38 430.781 1046.38 429.942V359.262C1046.38 358.423 1046.02 357.618 1045.38 357.024C1044.74 356.431 1043.87 356.097 1042.97 356.096H735.543Z" fill="#B6B6B6"/>
<path d="M783.311 413.383C796.118 413.383 806.501 403.76 806.501 391.89C806.501 380.019 796.118 370.396 783.311 370.396C770.503 370.396 760.12 380.019 760.12 391.89C760.12 403.76 770.503 413.383 783.311 413.383Z" fill="#D8D4D4"/>
<path d="M836.869 377.561C835.845 377.562 834.863 377.94 834.14 378.612C833.416 379.284 833.01 380.194 833.01 381.143C833.01 382.092 833.416 383.002 834.14 383.674C834.863 384.346 835.845 384.724 836.869 384.725H1019.08C1020.1 384.725 1021.09 384.348 1021.81 383.676C1022.54 383.004 1022.94 382.093 1022.94 381.143C1022.94 380.193 1022.54 379.282 1021.81 378.61C1021.09 377.938 1020.1 377.561 1019.08 377.561H836.869Z" fill="#D8D4D4"/>
<path d="M836.869 399.054C835.844 399.054 834.861 399.432 834.136 400.104C833.411 400.775 833.004 401.687 833.004 402.637C833.004 403.587 833.411 404.498 834.136 405.17C834.861 405.842 835.844 406.219 836.869 406.219H915.274C916.299 406.219 917.282 405.842 918.007 405.17C918.732 404.498 919.139 403.587 919.139 402.637C919.139 401.687 918.732 400.775 918.007 400.104C917.282 399.432 916.299 399.054 915.274 399.054H836.869Z" fill="#D8D4D4"/>
<path d="M1021.21 326.355H713.788C712.278 326.353 710.831 325.797 709.764 324.808C708.697 323.818 708.096 322.477 708.094 321.078V77.4239C708.096 76.025 708.697 74.6838 709.764 73.6946C710.831 72.7055 712.278 72.149 713.788 72.1474H1021.21C1022.72 72.149 1024.17 72.7055 1025.23 73.6946C1026.3 74.6838 1026.9 76.025 1026.9 77.4239V321.078C1026.9 322.477 1026.3 323.818 1025.23 324.808C1024.17 325.797 1022.72 326.353 1021.21 326.355V326.355ZM713.788 74.258C712.882 74.2589 712.014 74.5927 711.373 75.1863C710.733 75.7798 710.373 76.5845 710.372 77.4239V321.078C710.373 321.918 710.733 322.722 711.373 323.316C712.014 323.909 712.882 324.243 713.788 324.244H1021.21C1022.12 324.243 1022.98 323.909 1023.62 323.316C1024.26 322.722 1024.62 321.918 1024.63 321.078V77.4239C1024.62 76.5845 1024.26 75.7798 1023.62 75.1862C1022.98 74.5927 1022.12 74.2589 1021.21 74.2579L713.788 74.258Z" fill="#B6B6B6"/>
<path d="M761.554 304.52C774.362 304.52 784.745 294.897 784.745 283.027C784.745 271.156 774.362 261.533 761.554 261.533C748.747 261.533 738.364 271.156 738.364 283.027C738.364 294.897 748.747 304.52 761.554 304.52Z" fill="#D8D4D4"/>
<path d="M815.112 268.697C814.087 268.697 813.104 269.075 812.379 269.747C811.655 270.419 811.247 271.33 811.247 272.28C811.247 273.23 811.655 274.141 812.379 274.813C813.104 275.485 814.087 275.862 815.112 275.862H997.321C998.346 275.862 999.33 275.485 1000.05 274.813C1000.78 274.141 1001.19 273.23 1001.19 272.28C1001.19 271.33 1000.78 270.419 1000.05 269.747C999.33 269.075 998.346 268.697 997.321 268.697H815.112Z" fill="#D8D4D4"/>
<path d="M815.112 290.191C814.087 290.191 813.104 290.569 812.379 291.24C811.655 291.912 811.247 292.823 811.247 293.774C811.247 294.724 811.655 295.635 812.379 296.307C813.104 296.978 814.087 297.356 815.112 297.356H893.518C894.543 297.356 895.526 296.978 896.251 296.307C896.975 295.635 897.383 294.724 897.383 293.774C897.383 292.823 896.975 291.912 896.251 291.24C895.526 290.569 894.543 290.191 893.518 290.191H815.112Z" fill="#D8D4D4"/>
<path d="M540.695 336.781L544.084 361.789C544.36 363.825 545.146 365.773 546.38 367.476C547.613 369.18 549.26 370.593 551.188 371.601C553.117 372.609 555.273 373.185 557.484 373.283C559.695 373.38 561.901 372.996 563.923 372.162V372.162C565.717 371.423 567.326 370.346 568.647 369C569.969 367.655 570.975 366.069 571.601 364.345C572.228 362.62 572.461 360.794 572.286 358.981C572.112 357.169 571.533 355.41 570.587 353.815L556.335 329.798L551.676 226.537L521.539 233.051L540.695 336.781Z" fill="#FFB8B8"/>
<path d="M653.572 568.596L630.11 570.573L616.246 391.667L615.713 437.629L564.523 564.148L544.261 549.322L577.854 423.297L561.857 353.119H666.369L653.572 568.596Z" fill="#2F2E41"/>
<path d="M682.506 593.109L632.422 592.134C630.381 592.254 628.333 592.004 626.43 591.403C624.527 590.802 622.82 589.867 621.435 588.666C620.051 587.465 619.025 586.03 618.434 584.469C617.844 582.907 617.704 581.259 618.026 579.649L620.079 569.373C620.47 567.412 621.682 565.615 623.518 564.274C625.354 562.932 627.705 562.125 630.19 561.983V561.983C638.738 569.033 647.58 567.992 656.657 560.475L677.303 577.165L680.386 576.835C682.825 576.574 685.301 577.019 687.362 578.09C689.424 579.16 690.935 580.785 691.62 582.669C692.045 583.839 692.137 585.071 691.889 586.274C691.641 587.476 691.059 588.62 690.186 589.62C689.313 590.621 688.17 591.453 686.841 592.057C685.513 592.66 684.032 593.02 682.506 593.109V593.109Z" fill="#2F2E41"/>
<path d="M577.492 591.437L533.753 576.142C531.97 575.518 530.363 574.529 529.051 573.249C527.739 571.969 526.757 570.43 526.178 568.748C525.598 567.066 525.437 565.284 525.705 563.536C525.973 561.788 526.665 560.119 527.728 558.653L534.51 549.303C535.804 547.52 537.71 546.194 539.92 545.542C542.129 544.89 544.512 544.951 546.68 545.713V545.713C550.436 555.74 558.415 557.925 569.774 553.834L580.93 573.887L583.696 574.681C585.885 575.309 587.757 576.645 588.972 578.445C590.187 580.245 590.665 582.389 590.318 584.488C590.102 585.792 589.575 587.035 588.775 588.127C587.975 589.218 586.921 590.13 585.692 590.796C584.463 591.462 583.089 591.865 581.67 591.976C580.252 592.087 578.824 591.903 577.492 591.437Z" fill="#2F2E41"/>
<path d="M616.246 129.734C631.559 129.734 643.973 118.228 643.973 104.034C643.973 89.8412 631.559 78.3353 616.246 78.3353C600.932 78.3353 588.518 89.8412 588.518 104.034C588.518 118.228 600.932 129.734 616.246 129.734Z" fill="#FFB8B8"/>
<path d="M619.445 151.479L571.455 150.491C584.642 136.969 592.652 122.863 593.851 107.988H619.445V151.479Z" fill="#FFB8B8"/>
<path d="M669.568 366.956C624.268 356.184 581.763 348.923 555.459 362.014C560.065 317.128 554.737 259.831 538.93 199.946C533.795 180.495 537.278 162.968 555.992 152.962L581.053 139.618L619.445 140.606L639.476 150.878C649.272 155.414 657.202 162.789 662.063 171.884C666.923 180.978 668.449 191.294 666.408 201.265C655.645 253.758 661.461 310.413 669.568 366.956Z" fill="#3F3D56"/>
<path d="M679.166 335.327L682.924 360.289C683.23 362.321 683.019 364.392 682.307 366.335C681.595 368.278 680.402 370.039 678.823 371.478C677.245 372.917 675.326 373.994 673.218 374.622C671.11 375.25 668.874 375.412 666.686 375.095V375.095C664.746 374.814 662.891 374.163 661.236 373.183C659.582 372.203 658.166 370.915 657.076 369.402C655.986 367.888 655.248 366.181 654.907 364.389C654.566 362.597 654.63 360.759 655.095 358.991L662.103 332.362L637.575 231.542L668.502 230.553L679.166 335.327Z" fill="#FFB8B8"/>
<path d="M566.123 241.426L516 238.461C519.916 192.76 531.06 167.777 547.993 159.386L566.123 179.155V241.426Z" fill="#3F3D56"/>
<path d="M635.442 95.1386C625.673 92.242 620.603 110.807 606.115 122.32C602.821 124.937 594.604 114.733 591.718 117.872L587.052 104.71C581.516 89.0931 591.492 72.0686 608.836 68.6372C609.297 68.5461 609.761 68.4643 610.23 68.3919C617.795 67.2238 625.558 68.688 632.029 72.503C638.5 76.3181 643.221 82.215 645.286 89.0606C645.427 89.5594 645.458 90.0796 645.376 90.5897C645.294 91.0998 645.102 91.5893 644.81 92.0285C644.518 92.4676 644.134 92.8474 643.679 93.1448C643.225 93.4423 642.71 93.6512 642.165 93.7589L635.442 95.1386Z" fill="#2F2E41"/>
<path d="M679.166 232.53L632.243 242.415L630.11 171.248L656.771 172.236L679.166 232.53Z" fill="#3F3D56"/>
<path d="M1094.25 241.371H786.827C785.318 241.37 783.871 240.813 782.803 239.824C781.736 238.835 781.136 237.494 781.134 236.095V111.052C781.136 109.653 781.736 108.312 782.803 107.322C783.871 106.333 785.318 105.777 786.827 105.775H1094.25C1095.76 105.777 1097.21 106.333 1098.27 107.322C1099.34 108.312 1099.94 109.653 1099.94 111.052V236.095C1099.94 237.494 1099.34 238.835 1098.27 239.824C1097.21 240.813 1095.76 241.37 1094.25 241.371Z" fill="#00B0FF"/>
<path d="M849.433 149.36C848.925 149.359 848.422 149.451 847.952 149.631C847.483 149.81 847.056 150.074 846.696 150.407C846.337 150.74 846.051 151.135 845.857 151.57C845.662 152.005 845.562 152.471 845.562 152.942C845.562 153.413 845.662 153.879 845.857 154.314C846.051 154.749 846.337 155.144 846.696 155.477C847.056 155.81 847.483 156.074 847.952 156.253C848.422 156.433 848.925 156.525 849.433 156.524H1031.64C1032.67 156.524 1033.65 156.147 1034.38 155.475C1035.1 154.803 1035.51 153.892 1035.51 152.942C1035.51 151.992 1035.1 151.081 1034.38 150.409C1033.65 149.737 1032.67 149.36 1031.64 149.36H849.433Z" fill="white"/>
<path d="M849.433 170.117C848.925 170.116 848.422 170.208 847.952 170.388C847.483 170.567 847.056 170.831 846.696 171.164C846.337 171.497 846.051 171.892 845.857 172.327C845.662 172.762 845.562 173.228 845.562 173.699C845.562 174.17 845.662 174.636 845.857 175.071C846.051 175.506 846.337 175.901 846.696 176.234C847.056 176.567 847.483 176.831 847.952 177.01C848.422 177.19 848.925 177.282 849.433 177.281H1031.64C1032.67 177.281 1033.65 176.904 1034.38 176.232C1035.1 175.56 1035.51 174.649 1035.51 173.699C1035.51 172.749 1035.1 171.838 1034.38 171.166C1033.65 170.494 1032.67 170.117 1031.64 170.117H849.433Z" fill="white"/>
<path d="M849.433 170.117C848.925 170.116 848.422 170.208 847.952 170.388C847.483 170.567 847.056 170.831 846.696 171.164C846.337 171.497 846.051 171.892 845.857 172.327C845.662 172.762 845.562 173.228 845.562 173.699C845.562 174.17 845.662 174.636 845.857 175.071C846.051 175.506 846.337 175.901 846.696 176.234C847.056 176.567 847.483 176.831 847.952 177.01C848.422 177.19 848.925 177.282 849.433 177.281H1031.64C1032.67 177.281 1033.65 176.904 1034.38 176.232C1035.1 175.56 1035.51 174.649 1035.51 173.699C1035.51 172.749 1035.1 171.838 1034.38 171.166C1033.65 170.494 1032.67 170.117 1031.64 170.117H849.433Z" fill="white"/>
<path d="M849.433 170.117C848.925 170.116 848.422 170.208 847.952 170.388C847.483 170.567 847.056 170.831 846.696 171.164C846.337 171.497 846.051 171.892 845.857 172.327C845.662 172.762 845.562 173.228 845.562 173.699C845.562 174.17 845.662 174.636 845.857 175.071C846.051 175.506 846.337 175.901 846.696 176.234C847.056 176.567 847.483 176.831 847.952 177.01C848.422 177.19 848.925 177.282 849.433 177.281H1031.64C1032.67 177.281 1033.65 176.904 1034.38 176.232C1035.1 175.56 1035.51 174.649 1035.51 173.699C1035.51 172.749 1035.1 171.838 1034.38 171.166C1033.65 170.494 1032.67 170.117 1031.64 170.117H849.433Z" fill="white"/>
<path d="M849.434 190.622C848.409 190.622 847.426 190.999 846.701 191.671C845.976 192.343 845.569 193.254 845.569 194.204C845.569 195.154 845.976 196.066 846.701 196.737C847.426 197.409 848.409 197.787 849.434 197.787H927.839C928.864 197.787 929.847 197.409 930.572 196.737C931.297 196.066 931.704 195.154 931.704 194.204C931.704 193.254 931.297 192.343 930.572 191.671C929.847 190.999 928.864 190.622 927.839 190.622H849.434Z" fill="white"/>
<path d="M73.6308 591.957C74.0753 592.739 74.5387 593.52 75.0115 594.29H114.907C114.605 593.625 114.255 592.844 113.848 591.957C107.257 577.285 87.749 533.421 69.6403 487.947C50.1795 439.08 32.3262 388.357 33.8298 370C33.3664 374.14 19.9008 500.357 73.6308 591.957Z" fill="#86DFAA"/>
<path d="M82.2804 506.778C83.2696 535.743 89.5492 564.457 100.934 592.075C101.194 592.716 101.467 593.348 101.74 593.988L171.541 594.03C171.467 593.456 171.393 592.815 171.319 592.117C166.689 550.886 140.004 299.945 172.112 257.053C169.305 260.532 76.9464 375.775 82.2804 506.778Z" fill="#639B79"/>
<path d="M283.389 577.089C284.88 580.836 285.683 584.846 285.773 589.001C285.776 589.098 285.776 589.193 285.777 589.29L276.884 593.192C276.861 593.115 276.835 593.029 276.805 592.936C275.094 587.423 264.487 553.951 258 550.276C258.552 550.563 276.756 560.095 283.389 577.089Z" fill="#639B79"/>
<path d="M277.936 579.543C276.839 583.939 276.547 588.525 277.069 593.165C277.081 593.273 277.095 593.38 277.108 593.488L287.597 596.497C287.611 596.408 287.627 596.308 287.646 596.2C288.724 589.804 295.512 550.942 302.183 545.877C301.611 546.279 282.772 559.625 277.936 579.543Z" fill="#87AE97"/>
<path d="M452.567 578.285C452.069 584.165 450.497 589.939 447.899 595.438C447.84 595.566 447.778 595.692 447.716 595.819L433.521 595.111C433.542 594.995 433.564 594.866 433.586 594.725C434.951 586.388 442.952 535.635 436.863 526.583C437.398 527.319 454.996 551.701 452.567 578.285Z" fill="#A7CFB7"/>
<path d="M423.864 583.15C426.008 588.65 429.152 593.745 433.203 598.286C433.296 598.391 433.391 598.494 433.487 598.599L446.905 593.899C446.852 593.793 446.795 593.675 446.733 593.546C443.062 585.934 421.007 539.503 424.285 529.093C423.98 529.951 414.002 558.331 423.864 583.15Z" fill="#7ABD95"/>
<path d="M470.175 574.044C467.855 582.059 464.077 589.631 458.951 596.537C458.833 596.698 458.712 596.855 458.591 597.015L439.104 592.102C439.165 591.947 439.231 591.774 439.301 591.584C443.502 580.402 468.652 512.238 462.715 498C463.253 499.169 480.905 537.852 470.175 574.044Z" fill="#729480"/>
<path d="M82.1552 595C79.2475 595 76.3673 594.975 73.6795 594.924C70.9917 594.874 68.5489 594.801 66.4911 594.708C64.4333 594.615 62.8009 594.505 61.687 594.383C60.5732 594.262 60 594.131 60 594C60 593.869 60.5732 593.738 61.687 593.617C62.8009 593.496 64.4333 593.385 66.4911 593.292C68.5489 593.199 70.9917 593.126 73.6795 593.076C76.3673 593.025 79.2475 593 82.1552 593H1124.88C1130.75 593 1136.37 593.105 1140.52 593.293C1144.67 593.48 1147 593.735 1147 594C1147 594.265 1144.67 594.52 1140.52 594.707C1136.37 594.895 1130.75 595 1124.88 595H82.1552Z" fill="#B6B6B6"/>
</g>
<defs>
<clipPath id="clip0">
<rect width="1186" height="595" fill="white"/>
</clipPath>
</defs>
</svg>
