<svg width="1277" height="667" viewBox="0 0 1277 667" fill="none" xmlns="http://www.w3.org/2000/svg">
<g clip-path="url(#clip0)">
<path d="M1133.4 574.187C1132.53 604.123 1127.12 633.798 1117.33 662.335C1117.1 662.997 1116.87 663.65 1116.63 664.312H1056.66C1056.72 663.719 1056.78 663.057 1056.85 662.335C1060.85 619.724 1083.9 360.38 1056.34 316.029C1058.75 319.627 1138.05 438.792 1133.4 574.187Z" fill="#86DFAA"/>
<path d="M1128.9 662.335C1128.4 662.997 1127.87 663.659 1127.34 664.312H1082.35C1082.69 663.748 1083.08 663.086 1083.54 662.335C1090.97 649.9 1112.97 612.726 1133.4 574.187C1155.34 532.772 1175.48 489.785 1173.78 474.227C1174.31 477.736 1189.49 584.704 1128.9 662.335Z" fill="#B9FBD3"/>
<path d="M1012.31 622.92H704.887C703.378 622.918 701.931 622.362 700.864 621.373C699.796 620.384 699.196 619.043 699.194 617.644V546.964C699.196 545.565 699.796 544.224 700.864 543.235C701.931 542.246 703.378 541.689 704.887 541.688H1012.31C1013.82 541.689 1015.27 542.246 1016.33 543.235C1017.4 544.224 1018 545.565 1018 546.964V617.644C1018 619.043 1017.4 620.384 1016.33 621.373C1015.27 622.362 1013.82 622.918 1012.31 622.92V622.92ZM704.887 543.798C703.982 543.799 703.113 544.133 702.473 544.726C701.833 545.32 701.472 546.125 701.471 546.964V617.644C701.472 618.483 701.833 619.288 702.473 619.881C703.113 620.475 703.982 620.809 704.887 620.81H1012.31C1013.21 620.809 1014.08 620.475 1014.72 619.881C1015.36 619.288 1015.72 618.483 1015.72 617.644V546.964C1015.72 546.125 1015.36 545.32 1014.72 544.726C1014.08 544.133 1013.21 543.799 1012.31 543.798H704.887Z" fill="#B6B6B6"/>
<path d="M752.654 601.086C765.462 601.086 775.844 591.462 775.844 579.592C775.844 567.721 765.462 558.098 752.654 558.098C739.847 558.098 729.464 567.721 729.464 579.592C729.464 591.462 739.847 601.086 752.654 601.086Z" fill="#D8D4D4"/>
<path d="M806.213 565.263C805.189 565.264 804.207 565.642 803.484 566.314C802.76 566.986 802.354 567.896 802.354 568.845C802.354 569.794 802.76 570.704 803.484 571.376C804.207 572.047 805.189 572.426 806.213 572.427H988.422C989.447 572.427 990.43 572.05 991.155 571.378C991.879 570.706 992.287 569.795 992.287 568.845C992.287 567.895 991.879 566.984 991.155 566.312C990.43 565.64 989.447 565.263 988.422 565.263H806.213Z" fill="#D8D4D4"/>
<path d="M806.213 586.756C805.188 586.756 804.205 587.134 803.48 587.805C802.755 588.477 802.348 589.388 802.348 590.338C802.348 591.289 802.755 592.2 803.48 592.872C804.205 593.543 805.188 593.921 806.213 593.921H884.618C885.643 593.921 886.626 593.543 887.351 592.872C888.076 592.2 888.483 591.289 888.483 590.338C888.483 589.388 888.076 588.477 887.351 587.805C886.626 587.134 885.643 586.756 884.618 586.756H806.213Z" fill="#D8D4D4"/>
<path d="M806.213 586.756C805.188 586.756 804.205 587.134 803.48 587.805C802.755 588.477 802.348 589.388 802.348 590.338C802.348 591.289 802.755 592.2 803.48 592.872C804.205 593.543 805.188 593.921 806.213 593.921H884.618C885.643 593.921 886.626 593.543 887.351 592.872C888.076 592.2 888.483 591.289 888.483 590.338C888.483 589.388 888.076 588.477 887.351 587.805C886.626 587.134 885.643 586.756 884.618 586.756H806.213Z" fill="#D8D4D4"/>
<path d="M806.213 586.756C805.188 586.756 804.205 587.134 803.48 587.805C802.755 588.477 802.348 589.388 802.348 590.338C802.348 591.289 802.755 592.2 803.48 592.872C804.205 593.543 805.188 593.921 806.213 593.921H884.618C885.643 593.921 886.626 593.543 887.351 592.872C888.076 592.2 888.483 591.289 888.483 590.338C888.483 589.388 888.076 588.477 887.351 587.805C886.626 587.134 885.643 586.756 884.618 586.756H806.213Z" fill="#D8D4D4"/>
<path d="M1042.97 507.218H735.543C734.034 507.216 732.587 506.66 731.52 505.671C730.453 504.682 729.852 503.34 729.85 501.942V431.262C729.852 429.863 730.453 428.522 731.52 427.533C732.587 426.544 734.034 425.987 735.543 425.985H1042.97C1044.47 425.987 1045.92 426.544 1046.99 427.533C1048.06 428.522 1048.66 429.863 1048.66 431.262V501.942C1048.66 503.34 1048.06 504.682 1046.99 505.671C1045.92 506.66 1044.47 507.216 1042.97 507.218V507.218ZM735.543 428.096C734.638 428.097 733.77 428.431 733.129 429.024C732.489 429.618 732.129 430.423 732.128 431.262V501.942C732.129 502.781 732.489 503.586 733.129 504.179C733.77 504.773 734.638 505.107 735.543 505.107H1042.97C1043.87 505.107 1044.74 504.773 1045.38 504.179C1046.02 503.586 1046.38 502.781 1046.38 501.942V431.262C1046.38 430.423 1046.02 429.618 1045.38 429.024C1044.74 428.431 1043.87 428.097 1042.97 428.096H735.543Z" fill="#B6B6B6"/>
<path d="M783.311 485.383C796.118 485.383 806.501 475.76 806.501 463.89C806.501 452.019 796.118 442.396 783.311 442.396C770.503 442.396 760.12 452.019 760.12 463.89C760.12 475.76 770.503 485.383 783.311 485.383Z" fill="#D8D4D4"/>
<path d="M836.869 449.561C835.845 449.562 834.863 449.94 834.14 450.612C833.416 451.284 833.01 452.194 833.01 453.143C833.01 454.092 833.416 455.002 834.14 455.674C834.863 456.346 835.845 456.724 836.869 456.725H1019.08C1020.1 456.725 1021.09 456.348 1021.81 455.676C1022.54 455.004 1022.94 454.093 1022.94 453.143C1022.94 452.193 1022.54 451.282 1021.81 450.61C1021.09 449.938 1020.1 449.561 1019.08 449.561H836.869Z" fill="#D8D4D4"/>
<path d="M836.869 471.054C835.844 471.054 834.861 471.432 834.136 472.104C833.411 472.775 833.004 473.687 833.004 474.637C833.004 475.587 833.411 476.498 834.136 477.17C834.861 477.841 835.844 478.219 836.869 478.219H915.274C916.299 478.219 917.282 477.841 918.007 477.17C918.732 476.498 919.139 475.587 919.139 474.637C919.139 473.687 918.732 472.775 918.007 472.104C917.282 471.432 916.299 471.054 915.274 471.054H836.869Z" fill="#D8D4D4"/>
<path d="M1021.21 398.355H713.788C712.278 398.353 710.831 397.797 709.764 396.808C708.697 395.818 708.096 394.477 708.094 393.078V149.424C708.096 148.025 708.697 146.684 709.764 145.695C710.831 144.705 712.278 144.149 713.788 144.147H1021.21C1022.72 144.149 1024.17 144.705 1025.23 145.695C1026.3 146.684 1026.9 148.025 1026.9 149.424V393.078C1026.9 394.477 1026.3 395.818 1025.23 396.808C1024.17 397.797 1022.72 398.353 1021.21 398.355V398.355ZM713.788 146.258C712.882 146.259 712.014 146.593 711.373 147.186C710.733 147.78 710.373 148.585 710.372 149.424V393.078C710.373 393.918 710.733 394.722 711.373 395.316C712.014 395.909 712.882 396.243 713.788 396.244H1021.21C1022.12 396.243 1022.98 395.909 1023.62 395.316C1024.26 394.722 1024.62 393.918 1024.63 393.078V149.424C1024.62 148.585 1024.26 147.78 1023.62 147.186C1022.98 146.593 1022.12 146.259 1021.21 146.258L713.788 146.258Z" fill="#B6B6B6"/>
<path d="M761.554 376.52C774.362 376.52 784.745 366.897 784.745 355.027C784.745 343.156 774.362 333.533 761.554 333.533C748.747 333.533 738.364 343.156 738.364 355.027C738.364 366.897 748.747 376.52 761.554 376.52Z" fill="#D8D4D4"/>
<path d="M815.112 340.697C814.087 340.697 813.104 341.075 812.379 341.747C811.655 342.419 811.247 343.33 811.247 344.28C811.247 345.23 811.655 346.141 812.379 346.813C813.104 347.485 814.087 347.862 815.112 347.862H997.321C998.346 347.862 999.33 347.485 1000.05 346.813C1000.78 346.141 1001.19 345.23 1001.19 344.28C1001.19 343.33 1000.78 342.419 1000.05 341.747C999.33 341.075 998.346 340.697 997.321 340.697H815.112Z" fill="#D8D4D4"/>
<path d="M815.112 362.191C814.087 362.191 813.104 362.569 812.379 363.24C811.655 363.912 811.247 364.823 811.247 365.774C811.247 366.724 811.655 367.635 812.379 368.307C813.104 368.978 814.087 369.356 815.112 369.356H893.518C894.543 369.356 895.526 368.978 896.251 368.307C896.975 367.635 897.383 366.724 897.383 365.774C897.383 364.823 896.975 363.912 896.251 363.24C895.526 362.569 894.543 362.191 893.518 362.191H815.112Z" fill="#D8D4D4"/>
<path d="M540.695 408.781L544.084 433.789C544.36 435.825 545.146 437.773 546.38 439.476C547.613 441.18 549.26 442.593 551.188 443.601C553.117 444.609 555.273 445.185 557.484 445.283C559.695 445.38 561.901 444.996 563.923 444.162V444.162C565.717 443.423 567.326 442.346 568.647 441C569.969 439.655 570.975 438.069 571.601 436.345C572.228 434.62 572.461 432.794 572.286 430.981C572.112 429.169 571.533 427.41 570.587 425.815L556.335 401.798L551.676 298.537L521.539 305.051L540.695 408.781Z" fill="#FFB8B8"/>
<path d="M653.572 640.596L630.11 642.573L616.246 463.667L615.713 509.629L564.523 636.148L544.261 621.322L577.854 495.297L561.857 425.119H666.369L653.572 640.596Z" fill="#2F2E41"/>
<path d="M682.506 665.109L632.422 664.134C630.381 664.254 628.333 664.004 626.43 663.403C624.527 662.802 622.82 661.867 621.435 660.666C620.051 659.465 619.025 658.03 618.434 656.469C617.844 654.907 617.704 653.259 618.026 651.649L620.079 641.373C620.47 639.412 621.682 637.615 623.518 636.274C625.354 634.932 627.705 634.125 630.19 633.983V633.983C638.738 641.033 647.58 639.992 656.657 632.475L677.303 649.165L680.386 648.835C682.825 648.574 685.301 649.019 687.362 650.09C689.424 651.16 690.935 652.785 691.62 654.669C692.045 655.839 692.137 657.071 691.889 658.274C691.641 659.476 691.059 660.62 690.186 661.62C689.313 662.621 688.17 663.453 686.841 664.057C685.513 664.66 684.032 665.02 682.506 665.109V665.109Z" fill="#2F2E41"/>
<path d="M577.492 663.437L533.753 648.142C531.97 647.518 530.363 646.529 529.051 645.249C527.739 643.969 526.757 642.43 526.178 640.748C525.598 639.066 525.437 637.284 525.705 635.536C525.973 633.788 526.665 632.119 527.728 630.653L534.51 621.303C535.804 619.52 537.71 618.194 539.92 617.542C542.129 616.89 544.512 616.951 546.68 617.713V617.713C550.436 627.74 558.415 629.925 569.774 625.834L580.93 645.887L583.696 646.681C585.885 647.309 587.757 648.645 588.972 650.445C590.187 652.245 590.665 654.389 590.318 656.488C590.102 657.792 589.575 659.035 588.775 660.127C587.975 661.218 586.921 662.13 585.692 662.796C584.463 663.462 583.089 663.865 581.67 663.976C580.252 664.087 578.824 663.903 577.492 663.437Z" fill="#2F2E41"/>
<path d="M616.246 201.734C631.559 201.734 643.973 190.228 643.973 176.034C643.973 161.841 631.559 150.335 616.246 150.335C600.932 150.335 588.518 161.841 588.518 176.034C588.518 190.228 600.932 201.734 616.246 201.734Z" fill="#FFB8B8"/>
<path d="M619.445 223.479L571.455 222.491C584.642 208.969 592.652 194.863 593.851 179.988H619.445V223.479Z" fill="#FFB8B8"/>
<path d="M669.568 438.956C624.268 428.184 581.763 420.923 555.459 434.014C560.065 389.128 554.737 331.831 538.93 271.946C533.795 252.495 537.278 234.968 555.992 224.962L581.053 211.618L619.445 212.606L639.476 222.878C649.272 227.414 657.202 234.789 662.063 243.884C666.923 252.978 668.449 263.294 666.408 273.265C655.645 325.758 661.461 382.413 669.568 438.956Z" fill="#3F3D56"/>
<path d="M679.166 407.327L682.924 432.289C683.23 434.321 683.019 436.392 682.307 438.335C681.595 440.278 680.402 442.039 678.823 443.478C677.245 444.917 675.326 445.994 673.218 446.622C671.11 447.25 668.874 447.412 666.686 447.095V447.095C664.746 446.814 662.891 446.163 661.236 445.183C659.582 444.203 658.166 442.915 657.076 441.402C655.986 439.888 655.248 438.181 654.907 436.389C654.566 434.597 654.63 432.759 655.095 430.991L662.103 404.362L637.575 303.542L668.502 302.553L679.166 407.327Z" fill="#FFB8B8"/>
<path d="M566.123 313.426L516 310.461C519.916 264.76 531.06 239.777 547.993 231.386L566.123 251.155V313.426Z" fill="#3F3D56"/>
<path d="M635.442 167.139C625.673 164.242 620.603 182.807 606.115 194.32C602.821 196.937 594.604 186.733 591.718 189.872L587.052 176.71C581.516 161.093 591.492 144.069 608.836 140.637C609.297 140.546 609.761 140.464 610.23 140.392C617.795 139.224 625.558 140.688 632.029 144.503C638.5 148.318 643.221 154.215 645.286 161.061C645.427 161.559 645.458 162.08 645.376 162.59C645.294 163.1 645.102 163.589 644.81 164.028C644.518 164.468 644.134 164.847 643.679 165.145C643.225 165.442 642.71 165.651 642.165 165.759L635.442 167.139Z" fill="#2F2E41"/>
<path d="M679.166 304.53L632.243 314.415L630.11 243.248L656.771 244.236L679.166 304.53Z" fill="#3F3D56"/>
<path d="M1094.25 313.371H786.827C785.318 313.37 783.871 312.813 782.803 311.824C781.736 310.835 781.136 309.494 781.134 308.095V183.052C781.136 181.653 781.736 180.312 782.803 179.322C783.871 178.333 785.318 177.777 786.827 177.775H1094.25C1095.76 177.777 1097.21 178.333 1098.27 179.322C1099.34 180.312 1099.94 181.653 1099.94 183.052V308.095C1099.94 309.494 1099.34 310.835 1098.27 311.824C1097.21 312.813 1095.76 313.37 1094.25 313.371Z" fill="#F86C6C"/>
<path d="M849.433 221.36C848.925 221.359 848.422 221.451 847.952 221.631C847.483 221.81 847.056 222.074 846.696 222.407C846.337 222.74 846.051 223.135 845.857 223.57C845.662 224.005 845.562 224.471 845.562 224.942C845.562 225.413 845.662 225.879 845.857 226.314C846.051 226.749 846.337 227.144 846.696 227.477C847.056 227.81 847.483 228.074 847.952 228.253C848.422 228.433 848.925 228.525 849.433 228.524H1031.64C1032.67 228.524 1033.65 228.147 1034.38 227.475C1035.1 226.803 1035.51 225.892 1035.51 224.942C1035.51 223.992 1035.1 223.081 1034.38 222.409C1033.65 221.737 1032.67 221.36 1031.64 221.36H849.433Z" fill="white"/>
<path d="M849.433 242.117C848.925 242.116 848.422 242.208 847.952 242.388C847.483 242.567 847.056 242.831 846.696 243.164C846.337 243.497 846.051 243.892 845.857 244.327C845.662 244.762 845.562 245.228 845.562 245.699C845.562 246.17 845.662 246.636 845.857 247.071C846.051 247.506 846.337 247.901 846.696 248.234C847.056 248.567 847.483 248.831 847.952 249.01C848.422 249.19 848.925 249.282 849.433 249.281H1031.64C1032.67 249.281 1033.65 248.904 1034.38 248.232C1035.1 247.56 1035.51 246.649 1035.51 245.699C1035.51 244.749 1035.1 243.838 1034.38 243.166C1033.65 242.494 1032.67 242.117 1031.64 242.117H849.433Z" fill="white"/>
<path d="M849.433 242.117C848.925 242.116 848.422 242.208 847.952 242.388C847.483 242.567 847.056 242.831 846.696 243.164C846.337 243.497 846.051 243.892 845.857 244.327C845.662 244.762 845.562 245.228 845.562 245.699C845.562 246.17 845.662 246.636 845.857 247.071C846.051 247.506 846.337 247.901 846.696 248.234C847.056 248.567 847.483 248.831 847.952 249.01C848.422 249.19 848.925 249.282 849.433 249.281H1031.64C1032.67 249.281 1033.65 248.904 1034.38 248.232C1035.1 247.56 1035.51 246.649 1035.51 245.699C1035.51 244.749 1035.1 243.838 1034.38 243.166C1033.65 242.494 1032.67 242.117 1031.64 242.117H849.433Z" fill="white"/>
<path d="M849.433 242.117C848.925 242.116 848.422 242.208 847.952 242.388C847.483 242.567 847.056 242.831 846.696 243.164C846.337 243.497 846.051 243.892 845.857 244.327C845.662 244.762 845.562 245.228 845.562 245.699C845.562 246.17 845.662 246.636 845.857 247.071C846.051 247.506 846.337 247.901 846.696 248.234C847.056 248.567 847.483 248.831 847.952 249.01C848.422 249.19 848.925 249.282 849.433 249.281H1031.64C1032.67 249.281 1033.65 248.904 1034.38 248.232C1035.1 247.56 1035.51 246.649 1035.51 245.699C1035.51 244.749 1035.1 243.838 1034.38 243.166C1033.65 242.494 1032.67 242.117 1031.64 242.117H849.433Z" fill="white"/>
<path d="M849.434 262.622C848.409 262.622 847.426 262.999 846.701 263.671C845.976 264.343 845.569 265.254 845.569 266.204C845.569 267.154 845.976 268.066 846.701 268.737C847.426 269.409 848.409 269.787 849.434 269.787H927.839C928.864 269.787 929.847 269.409 930.572 268.737C931.297 268.066 931.704 267.154 931.704 266.204C931.704 265.254 931.297 264.343 930.572 263.671C929.847 262.999 928.864 262.622 927.839 262.622H849.434Z" fill="white"/>
<path d="M73.6308 663.957C74.0753 664.739 74.5387 665.52 75.0115 666.29H114.907C114.605 665.625 114.255 664.844 113.848 663.957C107.257 649.285 87.749 605.421 69.6403 559.947C50.1795 511.08 32.3262 460.357 33.8298 442C33.3664 446.14 19.9008 572.357 73.6308 663.957Z" fill="#86DFAA"/>
<path d="M82.2804 578.778C83.2696 607.743 89.5492 636.457 100.934 664.075C101.194 664.716 101.467 665.348 101.74 665.988L171.541 666.03C171.467 665.456 171.393 664.815 171.319 664.117C166.689 622.886 140.004 371.945 172.112 329.053C169.305 332.532 76.9464 447.775 82.2804 578.778Z" fill="#639B79"/>
<path d="M283.389 649.089C284.88 652.836 285.683 656.846 285.773 661.001C285.776 661.098 285.776 661.193 285.777 661.29L276.884 665.192C276.861 665.115 276.835 665.029 276.805 664.936C275.094 659.423 264.487 625.951 258 622.276C258.552 622.563 276.756 632.095 283.389 649.089Z" fill="#639B79"/>
<path d="M277.936 651.543C276.839 655.939 276.547 660.525 277.069 665.165C277.081 665.273 277.095 665.38 277.108 665.488L287.597 668.497C287.611 668.408 287.627 668.308 287.646 668.2C288.724 661.804 295.512 622.942 302.183 617.877C301.611 618.279 282.772 631.625 277.936 651.543Z" fill="#87AE97"/>
<path d="M452.567 650.285C452.069 656.165 450.497 661.939 447.899 667.438C447.84 667.566 447.778 667.692 447.716 667.819L433.521 667.111C433.542 666.995 433.564 666.866 433.586 666.725C434.951 658.388 442.952 607.635 436.863 598.583C437.398 599.319 454.996 623.701 452.567 650.285Z" fill="#A7CFB7"/>
<path d="M423.864 655.15C426.008 660.65 429.152 665.745 433.203 670.286C433.296 670.391 433.391 670.494 433.487 670.599L446.905 665.899C446.852 665.793 446.795 665.675 446.733 665.546C443.062 657.934 421.007 611.503 424.285 601.093C423.98 601.951 414.002 630.331 423.864 655.15Z" fill="#7ABD95"/>
<path d="M470.175 646.044C467.855 654.059 464.077 661.631 458.951 668.537C458.833 668.698 458.712 668.855 458.591 669.015L439.104 664.102C439.165 663.947 439.231 663.774 439.301 663.584C443.502 652.402 468.652 584.238 462.715 570C463.253 571.169 480.905 609.852 470.175 646.044Z" fill="#729480"/>
<path d="M82.1552 667C79.2475 667 76.3673 666.975 73.6795 666.924C70.9917 666.874 68.5489 666.801 66.4911 666.708C64.4333 666.615 62.8009 666.505 61.687 666.383C60.5732 666.262 60 666.131 60 666C60 665.869 60.5732 665.738 61.687 665.617C62.8009 665.496 64.4333 665.385 66.4911 665.292C68.5489 665.199 70.9917 665.126 73.6795 665.076C76.3673 665.025 79.2475 665 82.1552 665H1124.88C1130.75 665 1136.37 665.105 1140.52 665.293C1144.67 665.48 1147 665.735 1147 666C1147 666.265 1144.67 666.52 1140.52 666.707C1136.37 666.895 1130.75 667 1124.88 667H82.1552Z" fill="#B6B6B6"/>
<path d="M1176 106.226C1176 94.8223 1159.74 85.5779 1139.68 85.5779C1139.28 85.5779 1138.89 85.5877 1138.5 85.5949C1132.45 67.0467 1103.84 53 1069.47 53C1040.22 53 1015.15 63.1688 1004.59 77.6263C996.793 75.5622 988.756 74.5332 980.688 74.5657C949.932 74.5657 925 88.7404 925 106.226C925 122.109 945.575 135.259 972.398 137.535C991.889 141.099 1022.34 143.392 1056.55 143.392C1114.65 143.392 1157.15 132.311 1158.22 123.981C1168.86 120.381 1176 113.779 1176 106.226Z" fill="#F2F2F2"/>
<path d="M181 144.324C181 137.827 171.736 132.56 160.309 132.56C160.082 132.56 159.859 132.566 159.634 132.57C156.187 122.003 139.891 114 120.305 114C103.642 114 89.3596 119.793 83.3455 128.03C78.902 126.854 74.3231 126.268 69.7267 126.286C52.2045 126.286 38 134.362 38 144.324C38 153.373 49.7219 160.864 65.0035 162.161C76.1082 164.192 93.4539 165.498 112.949 165.498C146.045 165.498 170.262 159.185 170.87 154.439C176.934 152.388 181 148.627 181 144.324Z" fill="#F2F2F2"/>
<path opacity="0.4" d="M1146.92 355.84C1159.03 355.84 1168.84 346.026 1168.84 333.92C1168.84 321.814 1159.03 312 1146.92 312C1134.81 312 1125 321.814 1125 333.92C1125 346.026 1134.81 355.84 1146.92 355.84Z" fill="#FF6363"/>
<path opacity="0.4" d="M1169.25 279.496C1186.51 279.496 1200.5 265.506 1200.5 248.248C1200.5 230.99 1186.51 217 1169.25 217C1151.99 217 1138 230.99 1138 248.248C1138 265.506 1151.99 279.496 1169.25 279.496Z" fill="#E8B1B1"/>
<path d="M785 47.3239C785 40.8271 775.736 35.5603 764.309 35.5603C764.083 35.5603 763.859 35.5659 763.634 35.57C760.187 25.0027 743.891 17 724.305 17C707.642 17 693.36 22.7934 687.345 31.0301C682.902 29.8542 678.323 29.2679 673.727 29.2864C656.205 29.2864 642 37.3621 642 47.3239C642 56.3731 653.722 63.8645 669.004 65.1614C680.108 67.1918 697.454 68.4984 716.949 68.4984C750.045 68.4984 774.262 62.185 774.87 57.4394C780.934 55.3884 785 51.6268 785 47.3239Z" fill="#F2F2F2"/>
<path d="M333 670.02L331 669.98C331.774 647.743 334.146 625.59 338.1 603.693C346.748 556.812 361.129 526.023 380.843 512.182L381.991 513.818C335.939 546.152 333.023 668.784 333 670.02Z" fill="#2F2E41"/>
<path d="M358 669.541L356 669.502C356.043 667.287 357.293 615.088 377.843 600.66L378.991 602.297C359.271 616.143 358.01 669.009 358 669.541Z" fill="#2F2E41"/>
<path d="M393.369 514C398.892 514 403.369 509.523 403.369 504C403.369 498.477 398.892 494 393.369 494C387.846 494 383.369 498.477 383.369 504C383.369 509.523 387.846 514 393.369 514Z" fill="#749927"/>
<path d="M388.417 600C393.94 600 398.417 595.523 398.417 590C398.417 584.477 393.94 580 388.417 580C382.894 580 378.417 584.477 378.417 590C378.417 595.523 382.894 600 388.417 600Z" fill="#AC9F2A"/>
<path d="M353.339 519.995C355.218 531.999 350.32 542.735 350.32 542.735C350.32 542.735 342.375 534.009 340.495 522.005C338.616 510.001 343.514 499.265 343.514 499.265C343.514 499.265 351.459 507.991 353.339 519.995Z" fill="#2F2E41"/>
<path d="M386.026 549.148C374.533 553.091 363.107 550.138 363.107 550.138C363.107 550.138 370.315 540.794 381.808 536.852C393.301 532.909 404.727 535.862 404.727 535.862C404.727 535.862 397.519 545.206 386.026 549.148Z" fill="#2F2E41"/>
<path d="M386.395 625.31C381.194 626.943 375.654 627.182 370.331 626.003C373.711 621.7 378.263 618.466 383.439 616.691C388.615 614.915 394.193 614.674 399.503 615.997C396.025 620.195 391.505 623.407 386.395 625.31V625.31Z" fill="#2F2E41"/>
</g>
<defs>
<clipPath id="clip0">
<rect width="1277" height="667" fill="white"/>
</clipPath>
</defs>
</svg>
