<svg width="2081" height="941" viewBox="0 0 2081 941" fill="none" xmlns="http://www.w3.org/2000/svg">
<g clip-path="url(#clip0)">
<path d="M1434 560.331L1378.85 379L1268.15 381.797L1201 562.573L1202.36 564.983H1201.87V941H1433.85V564.983L1434 560.331Z" fill="#F2F2F2"/>
<path d="M1385.06 378.977H1322.16V596.894H1385.06V378.977Z" fill="#F2F2F2"/>
<path d="M1426.6 555.9L1273.62 373.746L966.559 376.556L780.287 558.152L784.052 560.574H782.707V938.297H1426.19V560.574L1426.6 555.9Z" fill="#F2F2F2"/>
<path d="M1275.11 374L1084 598.258V938.162H1427.51V555.596L1275.11 374Z" fill="#E6E6E6"/>
<path d="M1290.72 750.325H1220.56V812.389H1290.72V750.325Z" fill="#3F3D56"/>
<path d="M1290.72 642.899H1220.56V703.979H1290.72V642.899Z" fill="#3F3D56"/>
<path d="M1290.72 750.325H1220.56V812.389H1290.72V750.325Z" fill="white"/>
<path d="M1290.72 642.899H1220.56V703.979H1290.72V642.899Z" fill="white"/>
<path d="M978.948 733.857H908.795V795.921H978.948V733.857Z" fill="white"/>
<path d="M978.948 626.43H908.795V687.51H978.948V626.43Z" fill="white"/>
<path d="M876.84 190.911H792.795V482.1H876.84V190.911Z" fill="#F2F2F2"/>
<path d="M932.343 427.321L727.932 183.922L317.62 187.675L68.718 430.333L73.7461 433.568H71.9505V938.297H931.792V433.568L932.343 427.321Z" fill="#F2F2F2"/>
<path d="M714.168 225.435L458.801 525.099V979.292H917.815V468.093L714.168 225.435Z" fill="#E6E6E6"/>
<path d="M750.773 687.121H657.031V770.054H750.773V687.121Z" fill="#3F3D56"/>
<path d="M750.773 543.573H657.031V625.191H750.773V543.573Z" fill="#3F3D56"/>
<path d="M750.773 687.121H657.031V770.054H750.773V687.121Z" fill="white"/>
<path d="M750.773 543.573H657.031V625.191H750.773V543.573Z" fill="white"/>
<path d="M334.176 665.115H240.434V748.048H334.176V665.115Z" fill="white"/>
<path d="M334.176 521.568H240.434V603.185H334.176V521.568Z" fill="white"/>
<path d="M1229.6 211.796L1248.79 196.427C1233.88 194.78 1227.75 202.922 1225.24 209.366C1213.59 204.523 1200.91 210.869 1200.91 210.869L1239.32 224.827C1237.38 219.646 1234.01 215.126 1229.6 211.796V211.796Z" fill="#3F3D56"/>
<path d="M760.368 76.1176L779.566 60.7488C764.652 59.1019 758.524 67.2431 756.016 73.687C744.365 68.8444 731.68 75.1909 731.68 75.1909L770.092 89.1485C768.154 83.9679 764.781 79.4476 760.368 76.1176V76.1176Z" fill="#3F3D56"/>
<path d="M1525.73 15.584L1544.93 0.215232C1530.02 -1.4317 1523.89 6.70957 1521.38 13.1535C1509.73 8.31078 1497.04 14.6573 1497.04 14.6573L1535.46 28.6149C1533.52 23.4343 1530.15 18.914 1525.73 15.584V15.584Z" fill="#3F3D56"/>
<path d="M1564.49 912.286C1559.39 912.285 1554.38 913.632 1549.96 916.189C1545.47 912.128 1539.9 909.458 1533.93 908.503C1527.96 907.548 1521.84 908.349 1516.31 910.809C1510.78 913.269 1506.09 917.282 1502.79 922.361C1499.5 927.441 1497.75 933.367 1497.76 939.422H1593.58C1593.06 932.055 1589.77 925.16 1584.37 920.125C1578.98 915.09 1571.87 912.289 1564.49 912.286V912.286Z" fill="#3F3D56"/>
<path d="M590.584 912.286C585.48 912.285 580.467 913.632 576.049 916.189C571.562 912.128 565.994 909.458 560.021 908.503C554.047 907.548 547.925 908.349 542.398 910.809C536.871 913.269 532.176 917.282 528.883 922.361C525.59 927.441 523.841 933.367 523.849 939.422H619.675C619.152 932.055 615.861 925.16 610.463 920.125C605.065 915.09 597.962 912.289 590.584 912.286V912.286Z" fill="#3F3D56"/>
<path d="M1089.01 912.286C1083.91 912.285 1078.89 913.632 1074.47 916.189C1069.99 912.128 1064.42 909.458 1058.45 908.503C1052.47 907.548 1046.35 908.349 1040.82 910.809C1035.3 913.269 1030.6 917.282 1027.31 922.361C1024.02 927.441 1022.27 933.367 1022.27 939.422H1118.1C1117.58 932.055 1114.29 925.16 1108.89 920.125C1103.49 915.09 1096.39 912.289 1089.01 912.286V912.286Z" fill="#3F3D56"/>
<path d="M293.465 849H17V857.926H60.1169V942.727H69.0343V857.926H236.97V942.727H245.89V857.926H293.465V849Z" fill="#3F3D56"/>
<path d="M293.465 832H17V840.926H293.465V832Z" fill="#3F3D56"/>
<path d="M293.465 815H17V823.926H293.465V815Z" fill="#3F3D56"/>
<path d="M293.465 796H17V804.926H293.465V796Z" fill="#3F3D56"/>
<g clip-path="url(#clip1)">
<path d="M1897.4 848.187C1896.53 878.123 1891.12 907.798 1881.33 936.335C1881.1 936.997 1880.87 937.65 1880.63 938.312H1820.66C1820.72 937.719 1820.78 937.057 1820.85 936.335C1824.85 893.724 1847.9 634.38 1820.34 590.029C1822.75 593.627 1902.05 712.792 1897.4 848.187Z" fill="#86DFAA"/>
<path d="M1892.9 936.335C1892.4 936.997 1891.87 937.659 1891.34 938.312H1846.35C1846.69 937.748 1847.08 937.086 1847.54 936.335C1854.97 923.9 1876.97 886.726 1897.4 848.187C1919.34 806.772 1939.48 763.785 1937.78 748.227C1938.31 751.736 1953.49 858.704 1892.9 936.335Z" fill="#B9FBD3"/>
<path d="M1776.31 896.92H1468.89C1467.38 896.918 1465.93 896.362 1464.86 895.373C1463.8 894.384 1463.2 893.043 1463.19 891.644V820.964C1463.2 819.565 1463.8 818.224 1464.86 817.235C1465.93 816.246 1467.38 815.689 1468.89 815.688H1776.31C1777.82 815.689 1779.27 816.246 1780.33 817.235C1781.4 818.224 1782 819.565 1782 820.964V891.644C1782 893.043 1781.4 894.384 1780.33 895.373C1779.27 896.362 1777.82 896.918 1776.31 896.92V896.92ZM1468.89 817.798C1467.98 817.799 1467.11 818.133 1466.47 818.726C1465.83 819.32 1465.47 820.125 1465.47 820.964V891.644C1465.47 892.483 1465.83 893.288 1466.47 893.881C1467.11 894.475 1467.98 894.809 1468.89 894.81H1776.31C1777.21 894.809 1778.08 894.475 1778.72 893.881C1779.36 893.288 1779.72 892.483 1779.72 891.644V820.964C1779.72 820.125 1779.36 819.32 1778.72 818.726C1778.08 818.133 1777.21 817.799 1776.31 817.798H1468.89Z" fill="#B6B6B6"/>
<path d="M1516.65 875.086C1529.46 875.086 1539.84 865.462 1539.84 853.592C1539.84 841.721 1529.46 832.098 1516.65 832.098C1503.85 832.098 1493.46 841.721 1493.46 853.592C1493.46 865.462 1503.85 875.086 1516.65 875.086Z" fill="#D8D4D4"/>
<path d="M1570.21 839.263C1569.19 839.264 1568.21 839.642 1567.48 840.314C1566.76 840.986 1566.35 841.896 1566.35 842.845C1566.35 843.794 1566.76 844.704 1567.48 845.376C1568.21 846.047 1569.19 846.426 1570.21 846.427H1752.42C1753.45 846.427 1754.43 846.05 1755.15 845.378C1755.88 844.706 1756.29 843.795 1756.29 842.845C1756.29 841.895 1755.88 840.984 1755.15 840.312C1754.43 839.64 1753.45 839.263 1752.42 839.263H1570.21Z" fill="#D8D4D4"/>
<path d="M1570.21 860.756C1569.19 860.756 1568.2 861.134 1567.48 861.805C1566.76 862.477 1566.35 863.388 1566.35 864.338C1566.35 865.289 1566.76 866.2 1567.48 866.872C1568.2 867.543 1569.19 867.921 1570.21 867.921H1648.62C1649.64 867.921 1650.63 867.543 1651.35 866.872C1652.08 866.2 1652.48 865.289 1652.48 864.338C1652.48 863.388 1652.08 862.477 1651.35 861.805C1650.63 861.134 1649.64 860.756 1648.62 860.756H1570.21Z" fill="#D8D4D4"/>
<path d="M1570.21 860.756C1569.19 860.756 1568.2 861.134 1567.48 861.805C1566.76 862.477 1566.35 863.388 1566.35 864.338C1566.35 865.289 1566.76 866.2 1567.48 866.872C1568.2 867.543 1569.19 867.921 1570.21 867.921H1648.62C1649.64 867.921 1650.63 867.543 1651.35 866.872C1652.08 866.2 1652.48 865.289 1652.48 864.338C1652.48 863.388 1652.08 862.477 1651.35 861.805C1650.63 861.134 1649.64 860.756 1648.62 860.756H1570.21Z" fill="#D8D4D4"/>
<path d="M1570.21 860.756C1569.19 860.756 1568.2 861.134 1567.48 861.805C1566.76 862.477 1566.35 863.388 1566.35 864.338C1566.35 865.289 1566.76 866.2 1567.48 866.872C1568.2 867.543 1569.19 867.921 1570.21 867.921H1648.62C1649.64 867.921 1650.63 867.543 1651.35 866.872C1652.08 866.2 1652.48 865.289 1652.48 864.338C1652.48 863.388 1652.08 862.477 1651.35 861.805C1650.63 861.134 1649.64 860.756 1648.62 860.756H1570.21Z" fill="#D8D4D4"/>
<path d="M1806.97 781.218H1499.54C1498.03 781.216 1496.59 780.66 1495.52 779.671C1494.45 778.682 1493.85 777.34 1493.85 775.942V705.262C1493.85 703.863 1494.45 702.522 1495.52 701.533C1496.59 700.544 1498.03 699.987 1499.54 699.985H1806.97C1808.47 699.987 1809.92 700.544 1810.99 701.533C1812.06 702.522 1812.66 703.863 1812.66 705.262V775.942C1812.66 777.34 1812.06 778.682 1810.99 779.671C1809.92 780.66 1808.47 781.216 1806.97 781.218V781.218ZM1499.54 702.096C1498.64 702.097 1497.77 702.431 1497.13 703.024C1496.49 703.618 1496.13 704.423 1496.13 705.262V775.942C1496.13 776.781 1496.49 777.586 1497.13 778.179C1497.77 778.773 1498.64 779.107 1499.54 779.107H1806.97C1807.87 779.107 1808.74 778.773 1809.38 778.179C1810.02 777.586 1810.38 776.781 1810.38 775.942V705.262C1810.38 704.423 1810.02 703.618 1809.38 703.024C1808.74 702.431 1807.87 702.097 1806.97 702.096H1499.54Z" fill="#B6B6B6"/>
<path d="M1547.31 759.383C1560.12 759.383 1570.5 749.76 1570.5 737.89C1570.5 726.019 1560.12 716.396 1547.31 716.396C1534.5 716.396 1524.12 726.019 1524.12 737.89C1524.12 749.76 1534.5 759.383 1547.31 759.383Z" fill="#D8D4D4"/>
<path d="M1600.87 723.561C1599.84 723.562 1598.86 723.94 1598.14 724.612C1597.42 725.284 1597.01 726.194 1597.01 727.143C1597.01 728.092 1597.42 729.002 1598.14 729.674C1598.86 730.346 1599.84 730.724 1600.87 730.725H1783.08C1784.1 730.725 1785.09 730.348 1785.81 729.676C1786.54 729.004 1786.94 728.093 1786.94 727.143C1786.94 726.193 1786.54 725.282 1785.81 724.61C1785.09 723.938 1784.1 723.561 1783.08 723.561H1600.87Z" fill="#D8D4D4"/>
<path d="M1600.87 745.054C1599.84 745.054 1598.86 745.432 1598.14 746.104C1597.41 746.775 1597 747.687 1597 748.637C1597 749.587 1597.41 750.498 1598.14 751.17C1598.86 751.841 1599.84 752.219 1600.87 752.219H1679.27C1680.3 752.219 1681.28 751.841 1682.01 751.17C1682.73 750.498 1683.14 749.587 1683.14 748.637C1683.14 747.687 1682.73 746.775 1682.01 746.104C1681.28 745.432 1680.3 745.054 1679.27 745.054H1600.87Z" fill="#D8D4D4"/>
<path d="M1785.21 672.355H1477.79C1476.28 672.353 1474.83 671.797 1473.76 670.807C1472.7 669.818 1472.1 668.477 1472.09 667.078V423.424C1472.1 422.025 1472.7 420.684 1473.76 419.695C1474.83 418.705 1476.28 418.149 1477.79 418.147H1785.21C1786.72 418.149 1788.17 418.705 1789.23 419.695C1790.3 420.684 1790.9 422.025 1790.9 423.424V667.078C1790.9 668.477 1790.3 669.818 1789.23 670.807C1788.17 671.797 1786.72 672.353 1785.21 672.355V672.355ZM1477.79 420.258C1476.88 420.259 1476.01 420.593 1475.37 421.186C1474.73 421.78 1474.37 422.584 1474.37 423.424V667.078C1474.37 667.918 1474.73 668.722 1475.37 669.316C1476.01 669.909 1476.88 670.243 1477.79 670.244H1785.21C1786.12 670.243 1786.98 669.909 1787.62 669.316C1788.26 668.722 1788.62 667.918 1788.63 667.078V423.424C1788.62 422.584 1788.26 421.78 1787.62 421.186C1786.98 420.593 1786.12 420.259 1785.21 420.258L1477.79 420.258Z" fill="#B6B6B6"/>
<path d="M1525.55 650.52C1538.36 650.52 1548.74 640.897 1548.74 629.027C1548.74 617.156 1538.36 607.533 1525.55 607.533C1512.75 607.533 1502.36 617.156 1502.36 629.027C1502.36 640.897 1512.75 650.52 1525.55 650.52Z" fill="#D8D4D4"/>
<path d="M1579.11 614.698C1578.09 614.698 1577.1 615.075 1576.38 615.747C1575.65 616.419 1575.25 617.33 1575.25 618.28C1575.25 619.23 1575.65 620.141 1576.38 620.813C1577.1 621.485 1578.09 621.862 1579.11 621.862H1761.32C1762.35 621.862 1763.33 621.485 1764.05 620.813C1764.78 620.141 1765.19 619.23 1765.19 618.28C1765.19 617.33 1764.78 616.419 1764.05 615.747C1763.33 615.075 1762.35 614.698 1761.32 614.698H1579.11Z" fill="#D8D4D4"/>
<path d="M1579.11 636.191C1578.09 636.191 1577.1 636.569 1576.38 637.24C1575.65 637.912 1575.25 638.823 1575.25 639.773C1575.25 640.724 1575.65 641.635 1576.38 642.307C1577.1 642.978 1578.09 643.356 1579.11 643.356H1657.52C1658.54 643.356 1659.53 642.978 1660.25 642.307C1660.98 641.635 1661.38 640.724 1661.38 639.773C1661.38 638.823 1660.98 637.912 1660.25 637.24C1659.53 636.569 1658.54 636.191 1657.52 636.191H1579.11Z" fill="#D8D4D4"/>
<path d="M1304.7 682.781L1308.08 707.789C1308.36 709.825 1309.15 711.773 1310.38 713.476C1311.61 715.18 1313.26 716.593 1315.19 717.601C1317.12 718.609 1319.27 719.185 1321.48 719.283C1323.7 719.38 1325.9 718.996 1327.92 718.162V718.162C1329.72 717.423 1331.33 716.346 1332.65 715C1333.97 713.655 1334.97 712.069 1335.6 710.345C1336.23 708.62 1336.46 706.794 1336.29 704.981C1336.11 703.169 1335.53 701.41 1334.59 699.815L1320.34 675.798L1315.68 572.537L1285.54 579.051L1304.7 682.781Z" fill="#FFB8B8"/>
<path d="M1417.57 914.596L1394.11 916.573L1380.25 737.667L1379.71 783.629L1328.52 910.148L1308.26 895.322L1341.85 769.297L1325.86 699.119H1430.37L1417.57 914.596Z" fill="#2F2E41"/>
<path d="M1446.51 939.109L1396.42 938.134C1394.38 938.254 1392.33 938.004 1390.43 937.403C1388.53 936.802 1386.82 935.867 1385.44 934.666C1384.05 933.465 1383.02 932.03 1382.43 930.469C1381.84 928.907 1381.7 927.259 1382.03 925.649L1384.08 915.373C1384.47 913.412 1385.68 911.615 1387.52 910.274C1389.35 908.932 1391.71 908.125 1394.19 907.983V907.983C1402.74 915.033 1411.58 913.992 1420.66 906.475L1441.3 923.165L1444.39 922.835C1446.83 922.574 1449.3 923.019 1451.36 924.09C1453.42 925.16 1454.93 926.785 1455.62 928.669C1456.05 929.839 1456.14 931.071 1455.89 932.274C1455.64 933.476 1455.06 934.62 1454.19 935.62C1453.31 936.621 1452.17 937.453 1450.84 938.057C1449.51 938.66 1448.03 939.02 1446.51 939.109V939.109Z" fill="#2F2E41"/>
<path d="M1341.49 937.437L1297.75 922.142C1295.97 921.518 1294.36 920.529 1293.05 919.249C1291.74 917.969 1290.76 916.43 1290.18 914.748C1289.6 913.066 1289.44 911.284 1289.7 909.536C1289.97 907.788 1290.66 906.119 1291.73 904.653L1298.51 895.303C1299.8 893.52 1301.71 892.194 1303.92 891.542C1306.13 890.89 1308.51 890.951 1310.68 891.713V891.713C1314.44 901.74 1322.42 903.925 1333.77 899.834L1344.93 919.887L1347.7 920.681C1349.88 921.309 1351.76 922.645 1352.97 924.445C1354.19 926.245 1354.66 928.389 1354.32 930.488C1354.1 931.792 1353.58 933.035 1352.77 934.127C1351.97 935.218 1350.92 936.13 1349.69 936.796C1348.46 937.462 1347.09 937.865 1345.67 937.976C1344.25 938.087 1342.82 937.903 1341.49 937.437Z" fill="#2F2E41"/>
<path d="M1380.25 475.734C1395.56 475.734 1407.97 464.228 1407.97 450.034C1407.97 435.841 1395.56 424.335 1380.25 424.335C1364.93 424.335 1352.52 435.841 1352.52 450.034C1352.52 464.228 1364.93 475.734 1380.25 475.734Z" fill="#FFB8B8"/>
<path d="M1383.45 497.479L1335.46 496.491C1348.64 482.969 1356.65 468.863 1357.85 453.988H1383.45V497.479Z" fill="#FFB8B8"/>
<path d="M1433.57 712.956C1388.27 702.184 1345.76 694.923 1319.46 708.014C1324.07 663.128 1318.74 605.831 1302.93 545.946C1297.8 526.495 1301.28 508.968 1319.99 498.962L1345.05 485.618L1383.45 486.606L1403.48 496.878C1413.27 501.414 1421.2 508.789 1426.06 517.884C1430.92 526.978 1432.45 537.294 1430.41 547.265C1419.65 599.758 1425.46 656.413 1433.57 712.956Z" fill="#3F3D56"/>
<path d="M1443.17 681.327L1446.92 706.289C1447.23 708.321 1447.02 710.392 1446.31 712.335C1445.59 714.278 1444.4 716.039 1442.82 717.478C1441.25 718.917 1439.33 719.994 1437.22 720.622C1435.11 721.25 1432.87 721.412 1430.69 721.095V721.095C1428.75 720.814 1426.89 720.163 1425.24 719.183C1423.58 718.203 1422.17 716.915 1421.08 715.402C1419.99 713.888 1419.25 712.181 1418.91 710.389C1418.57 708.597 1418.63 706.759 1419.1 704.991L1426.1 678.361L1401.57 577.542L1432.5 576.553L1443.17 681.327Z" fill="#FFB8B8"/>
<path d="M1330.12 587.426L1280 584.461C1283.92 538.76 1295.06 513.777 1311.99 505.386L1330.12 525.155V587.426Z" fill="#3F3D56"/>
<path d="M1399.44 441.139C1389.67 438.242 1384.6 456.807 1370.11 468.32C1366.82 470.937 1358.6 460.733 1355.72 463.872L1351.05 450.71C1345.52 435.093 1355.49 418.069 1372.84 414.637C1373.3 414.546 1373.76 414.464 1374.23 414.392C1381.79 413.224 1389.56 414.688 1396.03 418.503C1402.5 422.318 1407.22 428.215 1409.29 435.061C1409.43 435.559 1409.46 436.08 1409.38 436.59C1409.29 437.1 1409.1 437.589 1408.81 438.028C1408.52 438.468 1408.13 438.847 1407.68 439.145C1407.22 439.442 1406.71 439.651 1406.17 439.759L1399.44 441.139Z" fill="#2F2E41"/>
<path d="M1443.17 578.53L1396.24 588.415L1394.11 517.248L1420.77 518.236L1443.17 578.53Z" fill="#3F3D56"/>
<path d="M1858.25 587.371H1550.83C1549.32 587.37 1547.87 586.813 1546.8 585.824C1545.74 584.835 1545.14 583.494 1545.13 582.095V457.052C1545.14 455.653 1545.74 454.312 1546.8 453.322C1547.87 452.333 1549.32 451.777 1550.83 451.775H1858.25C1859.76 451.777 1861.21 452.333 1862.27 453.322C1863.34 454.312 1863.94 455.653 1863.94 457.052V582.095C1863.94 583.494 1863.34 584.835 1862.27 585.824C1861.21 586.813 1859.76 587.37 1858.25 587.371Z" fill="#F86C6C"/>
<path d="M1613.43 495.36C1612.93 495.359 1612.42 495.451 1611.95 495.631C1611.48 495.81 1611.06 496.074 1610.7 496.407C1610.34 496.739 1610.05 497.135 1609.86 497.57C1609.66 498.005 1609.56 498.471 1609.56 498.942C1609.56 499.413 1609.66 499.879 1609.86 500.314C1610.05 500.749 1610.34 501.144 1610.7 501.477C1611.06 501.81 1611.48 502.074 1611.95 502.253C1612.42 502.433 1612.93 502.525 1613.43 502.524H1795.64C1796.67 502.524 1797.65 502.147 1798.38 501.475C1799.1 500.803 1799.51 499.892 1799.51 498.942C1799.51 497.992 1799.1 497.081 1798.38 496.409C1797.65 495.737 1796.67 495.36 1795.64 495.36H1613.43Z" fill="white"/>
<path d="M1613.43 516.117C1612.93 516.116 1612.42 516.208 1611.95 516.388C1611.48 516.567 1611.06 516.831 1610.7 517.164C1610.34 517.497 1610.05 517.892 1609.86 518.327C1609.66 518.762 1609.56 519.228 1609.56 519.699C1609.56 520.17 1609.66 520.636 1609.86 521.071C1610.05 521.506 1610.34 521.901 1610.7 522.234C1611.06 522.567 1611.48 522.831 1611.95 523.01C1612.42 523.19 1612.93 523.282 1613.43 523.281H1795.64C1796.67 523.281 1797.65 522.904 1798.38 522.232C1799.1 521.56 1799.51 520.649 1799.51 519.699C1799.51 518.749 1799.1 517.838 1798.38 517.166C1797.65 516.494 1796.67 516.117 1795.64 516.117H1613.43Z" fill="white"/>
<path d="M1613.43 519.117C1612.93 519.116 1612.42 519.208 1611.95 519.388C1611.48 519.567 1611.06 519.831 1610.7 520.164C1610.34 520.497 1610.05 520.892 1609.86 521.327C1609.66 521.762 1609.56 522.228 1609.56 522.699C1609.56 523.17 1609.66 523.636 1609.86 524.071C1610.05 524.506 1610.34 524.901 1610.7 525.234C1611.06 525.567 1611.48 525.831 1611.95 526.01C1612.42 526.19 1612.93 526.282 1613.43 526.281H1795.64C1796.67 526.281 1797.65 525.904 1798.38 525.232C1799.1 524.56 1799.51 523.649 1799.51 522.699C1799.51 521.749 1799.1 520.838 1798.38 520.166C1797.65 519.494 1796.67 519.117 1795.64 519.117H1613.43Z" fill="white"/>
<path d="M1613.43 516.117C1612.93 516.116 1612.42 516.208 1611.95 516.388C1611.48 516.567 1611.06 516.831 1610.7 517.164C1610.34 517.497 1610.05 517.892 1609.86 518.327C1609.66 518.762 1609.56 519.228 1609.56 519.699C1609.56 520.17 1609.66 520.636 1609.86 521.071C1610.05 521.506 1610.34 521.901 1610.7 522.234C1611.06 522.567 1611.48 522.831 1611.95 523.01C1612.42 523.19 1612.93 523.282 1613.43 523.281H1795.64C1796.67 523.281 1797.65 522.904 1798.38 522.232C1799.1 521.56 1799.51 520.649 1799.51 519.699C1799.51 518.749 1799.1 517.838 1798.38 517.166C1797.65 516.494 1796.67 516.117 1795.64 516.117H1613.43Z" fill="white"/>
<path d="M1613.43 536.622C1612.41 536.622 1611.43 536.999 1610.7 537.671C1609.98 538.343 1609.57 539.254 1609.57 540.204C1609.57 541.154 1609.98 542.065 1610.7 542.737C1611.43 543.409 1612.41 543.787 1613.43 543.787H1691.84C1692.86 543.787 1693.85 543.409 1694.57 542.737C1695.3 542.065 1695.7 541.154 1695.7 540.204C1695.7 539.254 1695.3 538.343 1694.57 537.671C1693.85 536.999 1692.86 536.622 1691.84 536.622H1613.43Z" fill="white"/>
<path d="M840.665 938.398C841.077 938.935 841.508 939.471 841.947 940H879C878.719 939.544 878.394 939.007 878.016 938.398C871.895 928.324 853.777 898.207 836.958 866.984C818.884 833.431 802.303 798.604 803.699 786C803.269 788.843 790.763 875.504 840.665 938.398Z" fill="#86DFAA"/>
<path d="M846.147 898.055C846.675 911.98 850.021 925.785 856.088 939.063C856.226 939.371 856.372 939.675 856.517 939.983L893.706 940.005C893.666 939.729 893.627 939.421 893.587 939.085C891.119 919.263 876.894 798.62 894 778C892.505 779.673 843.301 835.074 846.147 898.055Z" fill="#639B79"/>
<path d="M1216.57 924.285C1216.07 930.165 1214.5 935.939 1211.9 941.438C1211.84 941.566 1211.78 941.692 1211.72 941.819L1197.52 941.111C1197.54 940.995 1197.56 940.866 1197.59 940.725C1198.95 932.388 1206.95 881.635 1200.86 872.583C1201.4 873.319 1219 897.701 1216.57 924.285Z" fill="#A7CFB7"/>
<path d="M1187.86 929.15C1190.01 934.65 1193.15 939.745 1197.2 944.286C1197.3 944.391 1197.39 944.494 1197.49 944.599L1210.91 939.899C1210.85 939.793 1210.79 939.675 1210.73 939.546C1207.06 931.934 1185.01 885.503 1188.28 875.093C1187.98 875.951 1178 904.331 1187.86 929.15Z" fill="#7ABD95"/>
<path d="M1234.17 920.044C1231.86 928.059 1228.08 935.631 1222.95 942.537C1222.83 942.698 1222.71 942.855 1222.59 943.015L1203.1 938.102C1203.17 937.947 1203.23 937.774 1203.3 937.584C1207.5 926.402 1232.65 858.238 1226.72 844C1227.25 845.169 1244.9 883.852 1234.17 920.044Z" fill="#729480"/>
<path d="M1902 125.226C1902 113.822 1885.74 104.578 1865.68 104.578C1865.28 104.578 1864.89 104.588 1864.5 104.595C1858.45 86.0467 1829.84 72 1795.47 72C1766.22 72 1741.15 82.1688 1730.59 96.6263C1722.79 94.5622 1714.76 93.5332 1706.69 93.5657C1675.93 93.5657 1651 107.74 1651 125.226C1651 141.109 1671.57 154.259 1698.4 156.535C1717.89 160.099 1748.34 162.392 1782.55 162.392C1840.65 162.392 1883.15 151.311 1884.22 142.981C1894.86 139.381 1902 132.779 1902 125.226Z" fill="#F2F2F2"/>
<path d="M945 418.324C945 411.827 935.736 406.56 924.309 406.56C924.082 406.56 923.859 406.566 923.634 406.57C920.187 396.003 903.891 388 884.305 388C867.642 388 853.36 393.793 847.345 402.03C842.902 400.854 838.323 400.268 833.727 400.286C816.205 400.286 802 408.362 802 418.324C802 427.373 813.722 434.864 829.004 436.161C840.108 438.192 857.454 439.498 876.949 439.498C910.045 439.498 934.262 433.185 934.87 428.439C940.934 426.388 945 422.627 945 418.324Z" fill="#F2F2F2"/>
<path opacity="0.4" d="M1910.92 629.84C1923.03 629.84 1932.84 620.026 1932.84 607.92C1932.84 595.814 1923.03 586 1910.92 586C1898.81 586 1889 595.814 1889 607.92C1889 620.026 1898.81 629.84 1910.92 629.84Z" fill="#FF6363"/>
<path opacity="0.4" d="M1933.25 553.496C1950.51 553.496 1964.5 539.506 1964.5 522.248C1964.5 504.99 1950.51 491 1933.25 491C1915.99 491 1902 504.99 1902 522.248C1902 539.506 1915.99 553.496 1933.25 553.496Z" fill="#E8B1B1"/>
<path d="M1357 102.324C1357 95.8271 1347.74 90.5603 1336.31 90.5603C1336.08 90.5603 1335.86 90.5659 1335.63 90.57C1332.19 80.0027 1315.89 72 1296.31 72C1279.64 72 1265.36 77.7934 1259.35 86.0301C1254.9 84.8542 1250.32 84.2679 1245.73 84.2864C1228.2 84.2864 1214 92.3621 1214 102.324C1214 111.373 1225.72 118.864 1241 120.161C1252.11 122.192 1269.45 123.498 1288.95 123.498C1322.05 123.498 1346.26 117.185 1346.87 112.439C1352.93 110.388 1357 106.627 1357 102.324Z" fill="#F2F2F2"/>
<path d="M461 96.3239C461 89.8271 451.736 84.5603 440.309 84.5603C440.083 84.5603 439.859 84.5659 439.634 84.57C436.187 74.0027 419.891 66 400.305 66C383.642 66 369.36 71.7934 363.345 80.0301C358.902 78.8542 354.323 78.2679 349.727 78.2864C332.205 78.2864 318 86.3621 318 96.3239C318 105.373 329.722 112.864 345.004 114.161C356.108 116.192 373.454 117.498 392.949 117.498C426.045 117.498 450.262 111.185 450.87 106.439C456.934 104.388 461 100.627 461 96.3239Z" fill="#F2F2F2"/>
<path d="M1097 944.02L1095 943.98C1095.77 921.743 1098.15 899.59 1102.1 877.693C1110.75 830.812 1125.13 800.023 1144.84 786.182L1145.99 787.818C1099.94 820.152 1097.02 942.784 1097 944.02Z" fill="#3F3D56"/>
<path d="M1122 943.541L1120 943.502C1120.04 941.287 1121.29 889.088 1141.84 874.66L1142.99 876.297C1123.27 890.143 1122.01 943.009 1122 943.541Z" fill="#2F2E41"/>
<path d="M1157.37 788C1162.89 788 1167.37 783.523 1167.37 778C1167.37 772.477 1162.89 768 1157.37 768C1151.85 768 1147.37 772.477 1147.37 778C1147.37 783.523 1151.85 788 1157.37 788Z" fill="#749927"/>
<path d="M1152.42 874C1157.94 874 1162.42 869.523 1162.42 864C1162.42 858.477 1157.94 854 1152.42 854C1146.89 854 1142.42 858.477 1142.42 864C1142.42 869.523 1146.89 874 1152.42 874Z" fill="#AC9F2A"/>
<path d="M1117.34 793.995C1119.22 805.999 1114.32 816.735 1114.32 816.735C1114.32 816.735 1106.37 808.009 1104.5 796.005C1102.62 784.001 1107.51 773.265 1107.51 773.265C1107.51 773.265 1115.46 781.991 1117.34 793.995Z" fill="#2F2E41"/>
<path d="M1150.03 823.148C1138.53 827.091 1127.11 824.138 1127.11 824.138C1127.11 824.138 1134.32 814.794 1145.81 810.852C1157.3 806.909 1168.73 809.862 1168.73 809.862C1168.73 809.862 1161.52 819.206 1150.03 823.148Z" fill="#2F2E41"/>
<path d="M1150.4 899.31C1145.19 900.943 1139.65 901.182 1134.33 900.003C1137.71 895.7 1142.26 892.466 1147.44 890.691C1152.61 888.915 1158.19 888.674 1163.5 889.997C1160.02 894.195 1155.5 897.407 1150.4 899.31V899.31Z" fill="#2F2E41"/>
</g>
<path d="M454.389 922.839C455.88 926.585 456.683 930.596 456.773 934.751C456.776 934.847 456.776 934.943 456.777 935.04L447.884 938.941C447.861 938.864 447.835 938.778 447.805 938.685C446.094 933.172 435.487 899.7 429 896.026C429.552 896.313 447.756 905.845 454.389 922.839Z" fill="#639B79"/>
<path d="M448.794 925.543C447.697 929.939 447.405 934.525 447.927 939.165C447.939 939.273 447.953 939.38 447.966 939.488L458.455 942.497C458.469 942.408 458.485 942.308 458.504 942.2C459.582 935.804 466.37 896.942 473.041 891.877C472.469 892.279 453.63 905.625 448.794 925.543Z" fill="#87AE97"/>
<path d="M2027.28 937H17V941.175H2027.28V937Z" fill="#3F3D56"/>
</g>
<defs>
<clipPath id="clip0">
<rect width="2081" height="941" fill="white"/>
</clipPath>
<clipPath id="clip1">
<rect width="2198" height="992" fill="white" transform="translate(-139 -51)"/>
</clipPath>
</defs>
</svg>
