<svg id="_x33_0" enable-background="new 0 0 64 64" height="512" viewBox="0 0 64 64" width="512" xmlns="http://www.w3.org/2000/svg"><g><g><path d="m53 37v3h-18c-1.1 0-2-.9-2-2 0-.55.22-1.05.59-1.41.14-.14.29-.26.47-.35.28-.16.6-.24.94-.24h9 7 1c.55 0 1 .45 1 1z" fill="#ffeaa7"/><path d="m35 50h3 13v-6h-13-3-2v-6c0 1.1.9 2 2 2h18 1c.55 0 1 .45 1 1v20c0 .55-.45 1-1 1h-19c-1.1 0-2-.9-2-2v-10z" fill="#e6e9ed"/><path d="m41 47c0-.83-.34-1.58-.88-2.12s-1.29-.88-2.12-.88h13v6h-13c1.66 0 3-1.34 3-3z" fill="#fcd770"/><path d="m35 44v6h-2-5c-2.76 0-5-2.24-5-5v-7-.61c0-.14 0-.27.01-.41.05-.94.26-1.86.61-2.72.41-.98 1.01-1.89 1.78-2.66 1.05-1.05 2.36-1.79 3.8-2.15l2.98-.74 1.82 7.29.06.24c-.18.09-.33.21-.47.35-.37.36-.59.86-.59 1.41v6z" fill="#b4dd7f"/><path d="m34 36 5-4 5 4h-9c-.34 0-.66.08-.94.24z" fill="#b4dd7f"/><path d="m62 14v10.89c0 3.24-1.42 6.32-3.88 8.44l-.08.07c-1.96 1.68-4.46 2.6-7.04 2.6h-7l2-8h4.76c.82 0 1.62-.19 2.35-.55 1.77-.89 2.89-2.7 2.89-4.69v-8.76z" fill="#b4dd7f"/><path d="m39 32-5 4-1.82-7.29 2.82-.71z" fill="#a0d468"/><path d="m46 28-2 8-5-4 4-4z" fill="#a0d468"/><path d="m23 37.39v.61h-6v2.76c0 .69-.55 1.24-1.24 1.24-.46 0-.89-.26-1.1-.68l-1.66-3.32h-5c-.55 0-1-.45-1-1v-6c0-.55.45-1 1-1h14c.55 0 1 .45 1 1v5.98h.01c-.01.14-.01.27-.01.41z" fill="#e6e9ed"/><path d="m22 7v14c0 .55-.45 1-1 1h-3v2.76c0 .69-.55 1.24-1.24 1.24-.46 0-.89-.26-1.1-.68l-1.66-3.32h-11c-.55 0-1-.45-1-1v-14c0-.55.45-1 1-1h18c.55 0 1 .45 1 1z" fill="#f0d0b4"/><path d="m51 9-2.61 4.34c-.41-.22-.89-.34-1.39-.34h-1.03c-.09-.75-.43-1.46-.97-2-.64-.64-1.51-1-2.41-1h-7.18c-.9 0-1.77.36-2.41 1-.54.54-.88 1.25-.97 2h-1.03c-.8 0-1.52.31-2.05.81l-.46-1.87c-.33-1.29-.49-2.61-.49-3.94 0-1.3.42-2.56 1.2-3.6 1.16-1.55 2.98-2.46 4.92-2.46h.09c3.84.06 9.9.06 9.9.06 1.72 0 3.38.66 4.64 1.83l1.25 1.17-2 2z" fill="#656d78"/><g fill="#f0d0b4"><path d="m42.07 24.29.93 3.71-4 4-4-4 .93-3.71c.92.46 1.96.71 3.07.71s2.15-.25 3.07-.71z"/><path d="m48.39 13.34c.96.5 1.61 1.5 1.61 2.66 0 .83-.34 1.58-.88 2.12s-1.29.88-2.12.88h-1.07-.01c.06-.33.08-.66.08-1v-4.59c0-.14-.01-.27-.03-.41h1.03c.5 0 .98.12 1.39.34z"/><path d="m32 18c0 .34.02.67.08 1h-.01-1.07c-.83 0-1.58-.34-2.12-.88s-.88-1.29-.88-2.12c0-.86.36-1.64.95-2.19.53-.5 1.25-.81 2.05-.81h1.03c-.02.14-.03.27-.03.41z"/><path d="m46 13.41v4.59c0 .34-.02.67-.08 1-.21 1.54-.92 2.9-1.97 3.95-.55.55-1.18 1-1.88 1.34-.92.46-1.96.71-3.07.71s-2.15-.25-3.07-.71c-2.04-.99-3.53-2.95-3.85-5.29-.06-.33-.08-.66-.08-1v-4.59c0-.14.01-.27.03-.41.09-.75.43-1.46.97-2 .64-.64 1.51-1 2.41-1h7.18c.9 0 1.77.36 2.41 1 .54.54.88 1.25.97 2 .02.14.03.27.03.41z"/><path d="m62 11v3h-6v-3c0-.83.34-1.58.88-2.12s1.29-.88 2.12-.88c1.66 0 3 1.34 3 3z"/><path d="m40.12 44.88c.54.54.88 1.29.88 2.12 0 1.66-1.34 3-3 3h-3v-6h3c.83 0 1.58.34 2.12.88z"/></g></g><g><path d="m59 7c-2.206 0-4 1.794-4 4v11.764c0 1.615-.897 3.067-2.342 3.789-.585.293-1.24.447-1.894.447h-6.982l-.555-2.22c1.715-1.073 2.991-2.773 3.511-4.78h.262c2.206 0 4-1.794 4-4 0-1.154-.498-2.187-1.283-2.918l2.63-4.385-2.778-1.853 1.87-1.87-2.009-1.873c-1.448-1.35-3.336-2.096-5.319-2.101-.061 0-6.102-.001-9.887-.059-2.25-.007-4.456 1.036-5.824 2.859-.903 1.203-1.4 2.694-1.4 4.199 0 1.409.174 2.817.516 4.185l.343 1.37c-.53.678-.859 1.52-.859 2.446 0 2.206 1.794 4 4 4h.263c.52 2.007 1.796 3.708 3.511 4.78l-.599 2.396-5.219 1.304c-1.614.403-3.09 1.238-4.267 2.416-.248.247-.475.509-.69.779l.001-.675c0-1.103-.897-2-2-2h-14c-1.103 0-2 .897-2 2v6c0 1.103.897 2 2 2h4.382l1.383 2.765c.381.761 1.147 1.235 1.999 1.235 1.233 0 2.236-1.003 2.236-2.236v-1.764h4v6c0 3.309 2.691 6 6 6h4v9c0 1.654 1.346 3 3 3h19c1.103 0 2-.897 2-2v-20c0-1.103-.897-2-2-2v-2c0-.131-.015-.259-.039-.383 1.73-.449 3.351-1.282 4.727-2.461l.082-.07c2.689-2.305 4.23-5.655 4.23-9.195v-13.891c0-2.206-1.794-4-4-4zm0 2c1.103 0 2 .897 2 2v2h-4v-2c0-1.103.897-2 2-2zm-14.28 20-1.311 5.246-2.915-2.331 2.92-2.915zm-4.72 18c0 1.103-.897 2-2 2h-2v-4h2c1.103 0 2 .897 2 2zm1.444-2h8.556v4h-8.556c.344-.591.556-1.268.556-2s-.212-1.409-.556-2zm-2.439-11.722 2.148 1.722h-4.302zm7.995-15.278v-4c1.103 0 2 .897 2 2s-.897 2-2 2zm-18-2c0-1.103.897-2 2-2v4c-1.103 0-2-.897-2-2zm2.25-4h-.25c-.495 0-.965.102-1.403.267l-.142-.568c-.302-1.209-.455-2.454-.455-3.7 0-1.074.355-2.14 1-2.999.97-1.293 2.505-2.06 4.119-2.06.025 0 .051 0 .075.001 3.779.058 9.786.059 9.913.059h.002c1.474.003 2.88.559 3.957 1.564l.494.461-2.13 2.13 3.222 2.147-1.695 2.826c-.308-.076-.626-.128-.957-.128h-.25c-.215-.633-.556-1.22-1.043-1.707-.834-.834-1.942-1.293-3.121-1.293h-7.172c-1.179 0-2.287.459-3.121 1.293-.487.487-.828 1.074-1.043 1.707zm1.75 6v-4.586c0-.645.251-1.251.707-1.707s1.063-.707 1.707-.707h7.172c.645 0 1.251.251 1.707.707s.707 1.063.707 1.707v4.586c0 3.309-2.691 6-6 6s-6-2.691-6-6zm6 8c.828 0 1.627-.127 2.379-.361l.513 2.055-2.892 2.892-2.893-2.893.513-2.054c.752.234 1.552.361 2.38.361zm-4.307 3.107 2.81 2.81-2.911 2.329-1.203-4.813zm-18.693 7.893v3.764c-.001.22-.35.301-.447.105l-1.935-3.869h-5.618v-6l14 .001.004 5.999zm8 8v-7.61c0-1.919.747-3.723 2.104-5.08.921-.921 2.075-1.574 3.337-1.89l2.008-.502 1.48 5.921c-.57.546-.929 1.311-.929 2.161v5h-2v-6h-2v6c0 1.103.897 2 2 2h4v4h-6c-2.206 0-4-1.794-4-4zm30 16h-19c-.552 0-1-.448-1-1v-9h18v-8h-18v-2.184c.314.112.648.184 1 .184h19zm-2-24v2h-17c-.552 0-1-.448-1-1s.448-1 1-1zm5.469-4.434-.082.07c-1.779 1.525-4.046 2.364-6.387 2.364h-5.72l1.5-6h3.983c.963 0 1.928-.228 2.789-.658 2.126-1.062 3.447-3.2 3.447-5.578v-7.764h4v9.891c.001 2.955-1.286 5.753-3.53 7.675z"/><path d="m36 57h16v2h-16z"/><path d="m36 53h4v2h-4z"/><path d="m42 53h10v2h-10z"/><path d="m5 9h4v2h-4z"/><path d="m11 9h8v2h-8z"/><path d="m5 13h14v2h-14z"/><path d="m5 17h6v2h-6z"/><path d="m17 17h2v2h-2z"/><path d="m13 17h2v2h-2z"/><path d="m14.765 25.765c.381.761 1.147 1.235 1.999 1.235 1.233 0 2.236-1.003 2.236-2.236v-1.764h2c1.103 0 2-.897 2-2v-14c0-1.103-.897-2-2-2h-18c-1.103 0-2 .897-2 2v14c0 1.103.897 2 2 2h10.382zm-11.765-18.765h18l.002 14h-4.002v3.764c0 .221-.35.302-.447.105l-1.935-3.869h-11.618z"/><path d="m10 33h2v2h-2z"/><path d="m14 33h2v2h-2z"/><path d="m18 33h2v2h-2z"/></g></g></svg>